<svg xmlns="http://www.w3.org/2000/svg" xmlns:xlink="http://www.w3.org/1999/xlink" viewBox="0 0 2037.91 1337.88">
  <defs>
    <style>
      .cls-1, .cls-4 {
        fill: #7389b5;
      }

      .cls-11, .cls-17, .cls-2, .cls-21, .cls-3, .cls-32, .cls-35, .cls-5, .cls-6, .cls-8 {
        fill: none;
      }

      .cls-16, .cls-18, .cls-3, .cls-32, .cls-5 {
        stroke: #8a95b7;
      }

      .cls-11, .cls-12, .cls-16, .cls-17, .cls-18, .cls-19, .cls-21, .cls-3, .cls-30, .cls-32, .cls-35, .cls-5, .cls-6, .cls-8 {
        stroke-miterlimit: 10;
      }

      .cls-11, .cls-12, .cls-16, .cls-3, .cls-6, .cls-8 {
        stroke-width: 1.77px;
      }

      .cls-11, .cls-12, .cls-3, .cls-6, .cls-8 {
        stroke-dasharray: 1.77 3.53;
      }

      .cls-10, .cls-13, .cls-14, .cls-15, .cls-23, .cls-33, .cls-4 {
        opacity: 0.68;
      }

      .cls-17, .cls-18, .cls-19, .cls-21, .cls-5 {
        stroke-width: 3.53px;
        stroke-dasharray: 3.53 3.53;
      }

      .cls-19, .cls-6 {
        stroke: #a1a9c5;
      }

      .cls-7 {
        fill: #266185;
      }

      .cls-8 {
        stroke: #668ec5;
      }

      .cls-12, .cls-23, .cls-9 {
        fill: #a4b7db;
      }

      .cls-10, .cls-16, .cls-18, .cls-37 {
        fill: #8a95b7;
      }

      .cls-11, .cls-12 {
        stroke: #a4b7db;
      }

      .cls-14, .cls-20 {
        fill: #496291;
      }

      .cls-15 {
        fill: #5f729d;
      }

      .cls-16 {
        stroke-dasharray: 1.77 1.77;
      }

      .cls-17 {
        stroke: #c4c9dc;
      }

      .cls-19 {
        fill: #a1a9c5;
      }

      .cls-21 {
        stroke: #90b1c8;
      }

      .cls-22 {
        clip-path: url(#clip-path);
      }

      .cls-24, .cls-30 {
        fill: #14477b;
      }

      .cls-25 {
        clip-path: url(#clip-path-2);
      }

      .cls-26 {
        clip-path: url(#clip-path-3);
      }

      .cls-27 {
        clip-path: url(#clip-path-4);
      }

      .cls-28 {
        clip-path: url(#clip-path-5);
      }

      .cls-29 {
        clip-path: url(#clip-path-6);
      }

      .cls-30, .cls-35 {
        stroke: #14477b;
      }

      .cls-30, .cls-32 {
        stroke-width: 0.71px;
      }

      .cls-31 {
        clip-path: url(#clip-path-7);
      }

      .cls-33 {
        fill: #006b97;
      }

      .cls-34 {
        clip-path: url(#clip-path-8);
      }

      .cls-35 {
        stroke-width: 1.06px;
      }

      .cls-36 {
        clip-path: url(#clip-path-9);
      }
    </style>
    <clipPath id="clip-path" transform="translate(-4.61 -98.53)">
      <path class="cls-1" d="M110.27,904.27S95,888.32,92.79,877.73s-5.2-27.61,1.94-40.41,12.2-15.14,14.65-15.14h5.11s10.84,6.86,13.93,22.46,3.1,33.56-11.19,51.42Z"/>
    </clipPath>
    <clipPath id="clip-path-2" transform="translate(-4.61 -98.53)">
      <path class="cls-2" d="M491.49,986.94S476.23,971,474,960.4,468.81,932.78,476,920s12.19-15.13,14.64-15.13h5.12s10.83,6.86,13.93,22.45,3.09,33.57-11.2,51.43Z"/>
    </clipPath>
    <clipPath id="clip-path-3" transform="translate(-4.61 -98.53)">
      <path class="cls-2" d="M707.61,1091.61s-15.26-15.95-17.48-26.55-5.2-27.61,2-40.41,12.19-15.13,14.64-15.13h5.12s10.83,6.85,13.92,22.45,3.1,33.57-11.19,51.43Z"/>
    </clipPath>
    <clipPath id="clip-path-4" transform="translate(-4.61 -98.53)">
      <path class="cls-2" d="M1634.5,841.36s-15.26-15.94-17.48-26.54-5.2-27.61,1.94-40.41,12.2-15.13,14.64-15.13h5.12s10.84,6.86,13.93,22.45,3.1,33.57-11.19,51.43Z"/>
    </clipPath>
    <clipPath id="clip-path-5" transform="translate(-4.61 -98.53)">
      <path class="cls-1" d="M2022.21,1098.8s-15.26-16-17.48-26.54-5.19-27.61,2-40.41,12.19-15.14,14.64-15.14h5.12s10.83,6.86,13.93,22.45,3.09,33.58-11.19,51.43Z"/>
    </clipPath>
    <clipPath id="clip-path-6" transform="translate(-4.61 -98.53)">
      <path class="cls-1" d="M1836,1117.56s-24.24-25.34-27.76-42.17-8.26-43.86,3.08-64.2,19.38-24,23.27-24h8.13s17.21,10.89,22.13,35.66,4.91,53.34-17.78,81.7Z"/>
    </clipPath>
    <clipPath id="clip-path-7" transform="translate(-4.61 -98.53)">
      <path class="cls-1" d="M1492,621.94s-24.24-25.34-27.76-42.17-8.26-43.86,3.08-64.2,19.38-24,23.27-24h8.13s17.21,10.89,22.12,35.67,4.92,53.33-17.77,81.7Z"/>
    </clipPath>
    <clipPath id="clip-path-8" transform="translate(-4.61 -98.53)">
      <path class="cls-2" d="M1310.36,575.73s-15.26-16-17.48-26.54-5.2-27.61,1.95-40.41,12.19-15.14,14.64-15.14h5.12s10.83,6.86,13.93,22.45,3.09,33.58-11.19,51.43Z"/>
    </clipPath>
    <clipPath id="clip-path-9" transform="translate(-4.61 -98.53)">
      <path class="cls-2" d="M952.36,679.17S930.23,656,927,640.67s-7.54-40,2.82-58.62,17.7-22,21.25-22h7.42S974.2,570,978.7,592.66s4.49,48.7-16.24,74.6Z"/>
    </clipPath>
  </defs>
  <g id="Lines">
    <g id="Line_6" data-name="Line 6">
      <line class="cls-3" x1="17.87" y1="3.8" x2="0.88" y2="1337.87"/>
    </g>
    <g id="Line_5" data-name="Line 5">
      <g>
        <line class="cls-3" x1="572.1" y1="6.28" x2="559.61" y2="1052.82"/>
        <path class="cls-4" d="M605.23,1195.66a6.51,6.51,0,1,1,4-8.3A6.51,6.51,0,0,1,605.23,1195.66Z" transform="translate(-4.61 -98.53)"/>
        <path class="cls-4" d="M587.08,1220.44c-3.58,1.27-7.27.07-8.23-2.66s1.16-6,4.74-7.23,7.26-.07,8.23,2.66S590.66,1219.18,587.08,1220.44Z" transform="translate(-4.61 -98.53)"/>
        <path class="cls-4" d="M535.16,1215.63a6.87,6.87,0,1,1,9.17-3.23A6.88,6.88,0,0,1,535.16,1215.63Z" transform="translate(-4.61 -98.53)"/>
        <path class="cls-4" d="M529.52,1187.47a5.73,5.73,0,1,1,3.5-7.31A5.73,5.73,0,0,1,529.52,1187.47Z" transform="translate(-4.61 -98.53)"/>
        <path class="cls-4" d="M592.36,1168.11c-3,1.05-6.37-.84-7.57-4.23s.26-7,3.24-8.05,6.37.84,7.57,4.24S595.34,1167.06,592.36,1168.11Z" transform="translate(-4.61 -98.53)"/>
        <path class="cls-4" d="M545.18,1158.32c-3.39,1.19-7.24-1-8.6-4.82s.28-8,3.67-9.15,7.25,1,8.61,4.82S548.57,1157.12,545.18,1158.32Z" transform="translate(-4.61 -98.53)"/>
        <line class="cls-5" x1="583.7" y1="1066.36" x2="533.53" y2="1108.21"/>
        <line class="cls-5" x1="541.32" y1="1056.22" x2="578.98" y2="1112.03"/>
        <line class="cls-5" x1="528.69" y1="1084.13" x2="596.22" y2="1089.22"/>
      </g>
    </g>
    <g id="Line_4" data-name="Line 4">
      <g>
        <line class="cls-6" x1="1120.65" y1="1.61" x2="1103.66" y2="1335.68"/>
        <g>
          <polygon class="cls-7" points="1107.12 741.78 1101.32 726.13 1099.79 729.47 1098.99 729.11 1101.41 723.83 1107.94 741.48 1107.12 741.78"/>
          <polygon class="cls-7" points="1115.94 743.22 1108.78 726.2 1104.75 737.52 1103.92 737.22 1108.71 723.77 1116.75 742.87 1115.94 743.22"/>
          <path class="cls-7" d="M1127,842c-.42,0-1-1.12-8.11-17.49-.93,2.64-3.4,10-5.12,15.2l-.84-.27c5.5-16.53,5.5-16.53,5.93-16.54h.29l.11.27c3,6.94,7.63,17.48,8.07,18.1l-.34.24v0h.45l-.36.45Z" transform="translate(-4.61 -98.53)"/>
          <polygon class="cls-7" points="1118.25 743.18 1117.41 742.94 1123.23 723.26 1127.8 742.95 1126.94 743.15 1123.13 726.71 1118.25 743.18"/>
          <polygon class="cls-7" points="1145.01 744.56 1140.72 726.52 1134.26 744.5 1129.13 726.48 1123.59 743.2 1122.76 742.92 1129.19 723.49 1134.35 741.63 1140.89 723.44 1145.2 741.56 1151.99 723.59 1154.89 733.77 1154.05 734 1151.87 726.38 1145.01 744.56"/>
          <polygon class="cls-7" points="1130.96 743.2 1130.13 742.92 1136.58 723.37 1141.23 742.96 1140.38 743.16 1136.44 726.6 1130.96 743.2"/>
          <polygon class="cls-7" points="1142.54 743.22 1141.72 742.9 1149.4 723.35 1152.36 736.58 1151.5 736.77 1149.17 726.34 1142.54 743.22"/>
          <polygon class="cls-7" points="1156.38 732.25 1155.59 731.87 1158.92 724.8 1159.71 725.17 1156.38 732.25"/>
        </g>
      </g>
    </g>
    <g id="Line_3" data-name="Line 3">
      <rect class="cls-8" x="1440.17" y="438.8" width="1.81" height="339.58"/>
    </g>
    <g id="Line_2" data-name="Line 2">
      <g>
        <polygon class="cls-9" points="1630.66 380.23 1628.9 380.23 1628.9 5.97 1630.66 308.83 1630.66 380.23"/>
        <path class="cls-10" d="M1663.52,490.13a6.52,6.52,0,1,1-6.52-6.51A6.51,6.51,0,0,1,1663.52,490.13Z" transform="translate(-4.61 -98.53)"/>
        <path class="cls-10" d="M1680.85,515.48c0,3.8-2.35,6.87-5.25,6.87s-5.24-3.07-5.24-6.87,2.35-6.87,5.24-6.87S1680.85,511.69,1680.85,515.48Z" transform="translate(-4.61 -98.53)"/>
        <path class="cls-10" d="M1659.05,562.84a6.87,6.87,0,1,1,0-9.72A6.86,6.86,0,0,1,1659.05,562.84Z" transform="translate(-4.61 -98.53)"/>
        <path class="cls-10" d="M1630.62,558.81a5.73,5.73,0,1,1-5.73-5.73A5.74,5.74,0,0,1,1630.62,558.81Z" transform="translate(-4.61 -98.53)"/>
        <path class="cls-10" d="M1633.25,493.1c0,3.17-2.92,5.73-6.51,5.73s-6.51-2.56-6.51-5.73,2.91-5.72,6.51-5.72S1633.25,489.94,1633.25,493.1Z" transform="translate(-4.61 -98.53)"/>
        <path class="cls-10" d="M1608.33,534.34c0,3.6-3.32,6.52-7.41,6.52s-7.4-2.92-7.4-6.52,3.31-6.51,7.4-6.51S1608.33,530.75,1608.33,534.34Z" transform="translate(-4.61 -98.53)"/>
        <line class="cls-11" x1="1652.4" y1="395.12" x2="1622.13" y2="457.35"/>
        <line class="cls-12" x1="1622.13" y1="394.58" x2="1649.58" y2="457.35"/>
        <line class="cls-11" x1="1669.05" y1="415.37" x2="1599.59" y2="433.85"/>
      </g>
    </g>
    <g id="Line_1" data-name="Line 1">
      <line class="cls-6" x1="810.6" y1="5.97" x2="795.6" y2="1213.01"/>
    </g>
  </g>
  <g id="Snowflake">
    <g id="Snowflake_7" data-name="Snowflake 7">
      <g class="cls-13">
        <path class="cls-1" d="M1661.63,1370.36a.43.43,0,0,1-.28-.11l-28.33-27.5-29.24-18.3a.4.4,0,0,1-.12-.55.41.41,0,0,1,.55-.13l29.31,18.35,28.39,27.55a.4.4,0,0,1-.28.69Z" transform="translate(-4.61 -98.53)"/>
        <path class="cls-1" d="M1609,1368a.43.43,0,0,1-.28-.11.4.4,0,0,1,0-.57l24.19-25,8.54-35a.4.4,0,1,1,.78.19l-8.59,35.2-.07.08-24.27,25.11A.42.42,0,0,1,1609,1368Z" transform="translate(-4.61 -98.53)"/>
        <path class="cls-1" d="M1633.31,1342.86a.41.41,0,0,1-.4-.31.4.4,0,0,1,.31-.48l38.3-8.83a.41.41,0,0,1,.18.79l-38.3,8.82Z" transform="translate(-4.61 -98.53)"/>
        <path class="cls-1" d="M1600.23,1338.37a.42.42,0,0,1-.33-.16.41.41,0,0,1,.09-.57l10.84-8,3.1-15.29a.41.41,0,0,1,.48-.31.39.39,0,0,1,.31.47l-3.17,15.59-.12.09-11,8.1A.46.46,0,0,1,1600.23,1338.37Z" transform="translate(-4.61 -98.53)"/>
        <path class="cls-1" d="M1606.36,1340.57a.4.4,0,0,1-.25-.72l9.82-7.7,3.07-12.71a.4.4,0,0,1,.49-.3.4.4,0,0,1,.29.49l-3.13,13-.11.08-9.93,7.79A.38.38,0,0,1,1606.36,1340.57Z" transform="translate(-4.61 -98.53)"/>
        <path class="cls-1" d="M1613.15,1342.26a.4.4,0,0,1-.33-.17.41.41,0,0,1,.09-.57l8.87-6.29,2-8.84a.4.4,0,0,1,.48-.3.39.39,0,0,1,.3.48l-2.09,9.14-9.12,6.47A.4.4,0,0,1,1613.15,1342.26Z" transform="translate(-4.61 -98.53)"/>
        <path class="cls-1" d="M1640.31,1313.7l-.15-.13a68,68,0,0,0-6.68-5.4.37.37,0,0,1-.36-.17.41.41,0,0,1,.1-.56c.29-.2.65-.46,7.33,5.4l12.07-2a.42.42,0,0,1,.47.33.41.41,0,0,1-.33.47Z" transform="translate(-4.61 -98.53)"/>
        <path class="cls-1" d="M1638.89,1319.27l-7.25-6.14a.4.4,0,0,1-.05-.56.41.41,0,0,1,.57,0l7,5.91,10.47-1.54a.41.41,0,0,1,.46.34.41.41,0,0,1-.34.46Z" transform="translate(-4.61 -98.53)"/>
        <path class="cls-1" d="M1637,1326.61l-5.61-5a.4.4,0,1,1,.53-.6l5.31,4.68,10-2.19a.39.39,0,0,1,.48.31.41.41,0,0,1-.3.48Z" transform="translate(-4.61 -98.53)"/>
        <path class="cls-1" d="M1626.32,1360.25a.4.4,0,0,1-.39-.29l-2.24-7.54-8.12-1.73a.41.41,0,0,1-.31-.48.41.41,0,0,1,.48-.31l8.58,1.84,2.38,8a.39.39,0,0,1-.27.5Z" transform="translate(-4.61 -98.53)"/>
        <path class="cls-1" d="M1621.63,1367a.4.4,0,0,1-.39-.29l-2.58-8.67-10.32-3.33a.4.4,0,1,1,.25-.77l10.72,3.46,2.7,9.09a.39.39,0,0,1-.27.5Z" transform="translate(-4.61 -98.53)"/>
        <path class="cls-1" d="M1616.05,1373.13a.4.4,0,0,1-.38-.28l-2.77-9.3-9.1-3a.39.39,0,0,1-.25-.51.41.41,0,0,1,.51-.26l9.49,3.16,2.89,9.7a.41.41,0,0,1-.27.5Z" transform="translate(-4.61 -98.53)"/>
        <path class="cls-1" d="M1673,1348.94a.43.43,0,0,1-.31-.14L1662,1336.44l4.12-10a.42.42,0,0,1,.53-.23.4.4,0,0,1,.22.53l-3.93,9.51,10.38,12a.4.4,0,0,1,0,.57A.42.42,0,0,1,1673,1348.94Z" transform="translate(-4.61 -98.53)"/>
        <path class="cls-1" d="M1660.25,1345.15a.4.4,0,0,1-.34-.19l-4.74-7.6L1658,1330a.4.4,0,0,1,.52-.23.4.4,0,0,1,.24.52l-2.64,7,4.52,7.26a.39.39,0,0,1-.13.55A.32.32,0,0,1,1660.25,1345.15Z" transform="translate(-4.61 -98.53)"/>
        <path class="cls-1" d="M1653,1345.21a.41.41,0,0,1-.28-.11l-5-4.88.08-.23c2.21-6.87,2.45-7.1,2.54-7.18a.4.4,0,0,1,.57,0,.41.41,0,0,1,0,.53c-.24.42-1.49,4.18-2.28,6.64l4.6,4.52a.41.41,0,0,1,0,.57A.42.42,0,0,1,1653,1345.21Z" transform="translate(-4.61 -98.53)"/>
        <path class="cls-1" d="M1645.64,1346.12a.41.41,0,0,1-.34-.18l-2.86-4.26,1.66-5.09a.4.4,0,0,1,.77.25l-1.54,4.72,2.64,3.93a.41.41,0,0,1-.11.56A.38.38,0,0,1,1645.64,1346.12Z" transform="translate(-4.61 -98.53)"/>
        <path class="cls-1" d="M1643.79,1366.17a.35.35,0,0,1-.14,0,.4.4,0,0,1-.24-.52l3.51-9.75,7.59-2.26a.4.4,0,1,1,.23.77l-7.2,2.15-3.37,9.37A.42.42,0,0,1,1643.79,1366.17Z" transform="translate(-4.61 -98.53)"/>
        <path class="cls-1" d="M1649.06,1370.88l-.13,0a.39.39,0,0,1-.25-.51l3.41-10.06.2-.06,9.92-3a.4.4,0,0,1,.5.27.39.39,0,0,1-.27.5l-9.72,2.9-3.28,9.66A.4.4,0,0,1,1649.06,1370.88Z" transform="translate(-4.61 -98.53)"/>
        <path class="cls-1" d="M1653.41,1375.22a.45.45,0,0,1-.16,0,.4.4,0,0,1-.21-.53l4.19-9.6,9-3.34a.4.4,0,1,1,.28.76l-8.69,3.22-4,9.28A.39.39,0,0,1,1653.41,1375.22Z" transform="translate(-4.61 -98.53)"/>
      </g>
    </g>
    <g id="Snowflake_6" data-name="Snowflake 6">
      <g class="cls-13">
        <path class="cls-1" d="M1765.72,816.08a.46.46,0,0,1-.29-.11l-28.32-27.5-29.24-18.3a.39.39,0,0,1-.13-.55.42.42,0,0,1,.56-.13l29.3,18.35,28.4,27.55a.41.41,0,0,1,0,.57A.42.42,0,0,1,1765.72,816.08Z" transform="translate(-4.61 -98.53)"/>
        <path class="cls-1" d="M1713.12,813.69a.43.43,0,0,1-.28-.11.41.41,0,0,1,0-.57L1737,788l8.54-35a.41.41,0,0,1,.49-.3.4.4,0,0,1,.3.49l-8.59,35.2-.08.08-24.27,25.11A.4.4,0,0,1,1713.12,813.69Z" transform="translate(-4.61 -98.53)"/>
        <path class="cls-1" d="M1737.39,788.58a.4.4,0,0,1-.09-.79l38.3-8.83a.41.41,0,0,1,.18.79l-38.3,8.82Z" transform="translate(-4.61 -98.53)"/>
        <path class="cls-1" d="M1704.31,784.09a.41.41,0,0,1-.24-.73l10.84-8,3.11-15.29a.4.4,0,0,1,.79.16l-3.17,15.59-.13.09-11,8.1A.37.37,0,0,1,1704.31,784.09Z" transform="translate(-4.61 -98.53)"/>
        <path class="cls-1" d="M1710.44,786.29a.4.4,0,0,1-.24-.72l9.81-7.7,3.07-12.71a.41.41,0,0,1,.49-.3.4.4,0,0,1,.3.49l-3.14,13-.11.09-9.93,7.78A.38.38,0,0,1,1710.44,786.29Z" transform="translate(-4.61 -98.53)"/>
        <path class="cls-1" d="M1717.23,788a.4.4,0,0,1-.23-.73l8.87-6.3,2-8.84a.41.41,0,0,1,.79.18l-2.1,9.14-9.12,6.47A.4.4,0,0,1,1717.23,788Z" transform="translate(-4.61 -98.53)"/>
        <path class="cls-1" d="M1744.39,759.42l-.14-.13a68,68,0,0,0-6.68-5.4.36.36,0,0,1-.36-.16.4.4,0,0,1,.1-.57c.29-.2.64-.47,7.33,5.4l12.07-2a.41.41,0,0,1,.46.34.4.4,0,0,1-.33.46Z" transform="translate(-4.61 -98.53)"/>
        <path class="cls-1" d="M1743,765l-7.25-6.14a.4.4,0,0,1,0-.56.41.41,0,0,1,.57,0l7,5.91,10.47-1.54a.41.41,0,0,1,.46.34.4.4,0,0,1-.34.46Z" transform="translate(-4.61 -98.53)"/>
        <path class="cls-1" d="M1741.13,772.32l-5.62-5a.4.4,0,0,1,0-.57.39.39,0,0,1,.56,0l5.31,4.68,10-2.19a.41.41,0,1,1,.18.79Z" transform="translate(-4.61 -98.53)"/>
        <path class="cls-1" d="M1730.4,806a.41.41,0,0,1-.39-.29l-2.24-7.53-8.11-1.74a.41.41,0,0,1-.31-.48.4.4,0,0,1,.48-.31l8.58,1.84,2.38,8a.41.41,0,0,1-.27.5Z" transform="translate(-4.61 -98.53)"/>
        <path class="cls-1" d="M1725.71,812.68a.39.39,0,0,1-.38-.29l-2.59-8.67-10.31-3.33a.41.41,0,0,1-.26-.51.42.42,0,0,1,.51-.26l10.71,3.46,2.71,9.09a.41.41,0,0,1-.27.5Z" transform="translate(-4.61 -98.53)"/>
        <path class="cls-1" d="M1720.14,818.85a.4.4,0,0,1-.39-.29l-2.77-9.29-9.1-3a.4.4,0,0,1-.25-.51.41.41,0,0,1,.51-.26l9.5,3.16,2.88,9.7a.39.39,0,0,1-.27.5Z" transform="translate(-4.61 -98.53)"/>
        <path class="cls-1" d="M1777.06,794.66a.41.41,0,0,1-.3-.14L1766,782.16l4.13-10a.4.4,0,0,1,.53-.22.41.41,0,0,1,.22.52L1767,782l10.39,12a.41.41,0,0,1,0,.57A.45.45,0,0,1,1777.06,794.66Z" transform="translate(-4.61 -98.53)"/>
        <path class="cls-1" d="M1764.34,790.87a.4.4,0,0,1-.35-.19l-4.73-7.6,2.78-7.33a.41.41,0,0,1,.52-.23.4.4,0,0,1,.23.52l-2.64,7,4.53,7.27a.39.39,0,0,1-.13.55A.34.34,0,0,1,1764.34,790.87Z" transform="translate(-4.61 -98.53)"/>
        <path class="cls-1" d="M1757.1,790.93a.43.43,0,0,1-.28-.11l-5-4.88.07-.23c2.21-6.87,2.45-7.1,2.54-7.18a.4.4,0,0,1,.57,0,.41.41,0,0,1,0,.53c-.24.42-1.49,4.18-2.28,6.64l4.6,4.52a.4.4,0,0,1-.28.69Z" transform="translate(-4.61 -98.53)"/>
        <path class="cls-1" d="M1749.72,791.84a.41.41,0,0,1-.34-.18l-2.86-4.26,1.67-5.09a.4.4,0,1,1,.76.25l-1.54,4.72,2.64,3.93a.39.39,0,0,1-.11.56A.36.36,0,0,1,1749.72,791.84Z" transform="translate(-4.61 -98.53)"/>
        <path class="cls-1" d="M1747.87,811.89l-.14,0a.4.4,0,0,1-.24-.51l3.51-9.76,7.59-2.26a.4.4,0,0,1,.23.77l-7.2,2.15-3.37,9.37A.41.41,0,0,1,1747.87,811.89Z" transform="translate(-4.61 -98.53)"/>
        <path class="cls-1" d="M1753.14,816.6a.3.3,0,0,1-.13,0,.4.4,0,0,1-.25-.51l3.42-10.06.2-.06,9.91-3a.4.4,0,0,1,.5.27.39.39,0,0,1-.27.5l-9.71,2.9-3.29,9.66A.39.39,0,0,1,1753.14,816.6Z" transform="translate(-4.61 -98.53)"/>
        <path class="cls-1" d="M1757.5,821a.42.42,0,0,1-.16,0,.4.4,0,0,1-.21-.53l4.18-9.6,9-3.34a.39.39,0,0,1,.51.24.4.4,0,0,1-.23.52l-8.7,3.22-4,9.28A.41.41,0,0,1,1757.5,821Z" transform="translate(-4.61 -98.53)"/>
      </g>
    </g>
    <g id="Snowflake_5" data-name="Snowflake 5">
      <g>
        <path class="cls-14" d="M1868.28,415.9a4.43,4.43,0,0,1-3.4-5.16,4.23,4.23,0,0,1,4.87-3.6,4.43,4.43,0,0,1,3.4,5.16A4.23,4.23,0,0,1,1868.28,415.9Z" transform="translate(-4.61 -98.53)"/>
        <path class="cls-14" d="M1850.21,424.5c-2.41-.45-4.09-2.4-3.76-4.34s2.54-3.16,5-2.71,4.1,2.41,3.77,4.35S1852.62,425,1850.21,424.5Z" transform="translate(-4.61 -98.53)"/>
        <path class="cls-14" d="M1822.62,404.17a4.86,4.86,0,0,1,1.1-6.53,4.28,4.28,0,0,1,6.17,1.16,4.88,4.88,0,0,1-1.1,6.54A4.28,4.28,0,0,1,1822.62,404.17Z" transform="translate(-4.61 -98.53)"/>
        <path class="cls-14" d="M1828.4,385.55a3.9,3.9,0,0,1-3-4.54,3.7,3.7,0,0,1,4.28-3.16,3.9,3.9,0,0,1,3,4.54A3.72,3.72,0,0,1,1828.4,385.55Z" transform="translate(-4.61 -98.53)"/>
        <path class="cls-14" d="M1869.82,395.2c-2-.38-3.31-2.64-2.9-5.06s2.37-4.07,4.37-3.69,3.31,2.65,2.9,5.06S1871.83,395.58,1869.82,395.2Z" transform="translate(-4.61 -98.53)"/>
        <path class="cls-15" d="M1846.46,373.5c-2.28-.43-3.76-3-3.29-5.75s2.69-4.63,5-4.2,3.76,3,3.3,5.76S1848.75,373.94,1846.46,373.5Z" transform="translate(-4.61 -98.53)"/>
        <path class="cls-14" d="M1868.28,380.19c-2-.38-3.31-2.65-2.9-5.06s2.37-4.07,4.37-3.69,3.31,2.64,2.9,5.06S1870.29,380.57,1868.28,380.19Z" transform="translate(-4.61 -98.53)"/>
        <path class="cls-14" d="M1831.4,417c-2-.38-3.31-2.64-2.9-5.06s2.37-4.07,4.37-3.69,3.31,2.65,2.9,5.06S1833.41,417.33,1831.4,417Z" transform="translate(-4.61 -98.53)"/>
        <line class="cls-16" x1="1843.81" y1="272.86" x2="1846.37" y2="320.59"/>
        <line class="cls-16" x1="1863.58" y1="279.09" x2="1828.83" y2="311.91"/>
        <line class="cls-16" x1="1826.08" y1="283.17" x2="1864.41" y2="313"/>
        <line class="cls-16" x1="1865.95" y1="292.3" x2="1821.65" y2="302.96"/>
      </g>
    </g>
    <g id="Snowflake_4" data-name="Snowflake 4">
      <g class="cls-13">
        <path class="cls-1" d="M1221.66,343.85a.2.2,0,0,1-.15-.06l-15.44-15-15.93-10a.22.22,0,0,1-.07-.31.22.22,0,0,1,.3-.07l16,10,15.47,15a.22.22,0,0,1,0,.31A.25.25,0,0,1,1221.66,343.85Z" transform="translate(-4.61 -98.53)"/>
        <path class="cls-1" d="M1193,342.55a.22.22,0,0,1-.16-.37L1206,328.54l4.66-19.07a.22.22,0,0,1,.26-.16.24.24,0,0,1,.17.27l-4.69,19.18,0,0-13.22,13.68A.2.2,0,0,1,1193,342.55Z" transform="translate(-4.61 -98.53)"/>
        <path class="cls-1" d="M1206.22,328.87a.21.21,0,0,1-.21-.17.23.23,0,0,1,.16-.27l20.87-4.8a.22.22,0,0,1,.27.16.23.23,0,0,1-.17.27l-20.87,4.8Z" transform="translate(-4.61 -98.53)"/>
        <path class="cls-1" d="M1188.2,326.42a.21.21,0,0,1-.18-.09.22.22,0,0,1,0-.31l5.9-4.36,1.7-8.33a.22.22,0,0,1,.43.09l-1.73,8.49-.07.06-6,4.41A.2.2,0,0,1,1188.2,326.42Z" transform="translate(-4.61 -98.53)"/>
        <path class="cls-1" d="M1191.54,327.62a.23.23,0,0,1-.17-.08.22.22,0,0,1,0-.31l5.35-4.2,1.68-6.92a.22.22,0,0,1,.26-.17.24.24,0,0,1,.17.27l-1.71,7.07-.06.05-5.41,4.24A.19.19,0,0,1,1191.54,327.62Z" transform="translate(-4.61 -98.53)"/>
        <path class="cls-1" d="M1195.24,328.54a.21.21,0,0,1-.18-.09.22.22,0,0,1,0-.31l4.83-3.43,1.11-4.82a.21.21,0,0,1,.26-.16.22.22,0,0,1,.17.26l-1.14,5-5,3.53A.22.22,0,0,1,1195.24,328.54Z" transform="translate(-4.61 -98.53)"/>
        <path class="cls-1" d="M1210,313l-.08-.07a34.67,34.67,0,0,0-3.64-2.94.23.23,0,0,1-.2-.1.21.21,0,0,1,.06-.3c.16-.11.35-.26,4,2.94l6.58-1.1a.23.23,0,0,1,.25.19.22.22,0,0,1-.18.25Z" transform="translate(-4.61 -98.53)"/>
        <path class="cls-1" d="M1209.26,316l-4-3.35a.22.22,0,0,1,.29-.33l3.8,3.21,5.7-.83a.21.21,0,0,1,.25.18.22.22,0,0,1-.18.25Z" transform="translate(-4.61 -98.53)"/>
        <path class="cls-1" d="M1208.26,320l-3.06-2.7a.22.22,0,0,1,.29-.33l2.89,2.55,5.46-1.19a.21.21,0,0,1,.26.17.22.22,0,0,1-.17.26Z" transform="translate(-4.61 -98.53)"/>
        <path class="cls-1" d="M1202.42,338.34a.22.22,0,0,1-.22-.16l-1.22-4.1-4.42-.95a.22.22,0,0,1-.17-.26.23.23,0,0,1,.26-.17l4.68,1,1.3,4.36a.22.22,0,0,1-.15.27Z" transform="translate(-4.61 -98.53)"/>
        <path class="cls-1" d="M1199.86,342a.22.22,0,0,1-.21-.16l-1.41-4.73-5.62-1.81a.22.22,0,0,1-.14-.27.23.23,0,0,1,.28-.15l5.84,1.89,1.47,5a.21.21,0,0,1-.15.27Z" transform="translate(-4.61 -98.53)"/>
        <path class="cls-1" d="M1196.82,345.36a.23.23,0,0,1-.21-.15l-1.51-5.07-4.95-1.65a.21.21,0,0,1-.14-.27.22.22,0,0,1,.28-.14l5.17,1.72,1.57,5.28a.22.22,0,0,1-.14.28Z" transform="translate(-4.61 -98.53)"/>
        <path class="cls-1" d="M1227.84,332.18a.21.21,0,0,1-.16-.08l-5.84-6.73,2.25-5.43a.21.21,0,0,1,.28-.12.22.22,0,0,1,.12.29l-2.14,5.18,5.66,6.52a.22.22,0,0,1,0,.31A.24.24,0,0,1,1227.84,332.18Z" transform="translate(-4.61 -98.53)"/>
        <path class="cls-1" d="M1220.91,330.12a.21.21,0,0,1-.19-.11l-2.58-4.14,1.51-4a.23.23,0,0,1,.29-.13.22.22,0,0,1,.13.28l-1.44,3.79,2.46,4a.21.21,0,0,1-.07.3A.15.15,0,0,1,1220.91,330.12Z" transform="translate(-4.61 -98.53)"/>
        <path class="cls-1" d="M1217,330.15a.23.23,0,0,1-.16-.06l-2.7-2.66,0-.13c1.2-3.74,1.33-3.86,1.38-3.91a.22.22,0,0,1,.31,0,.21.21,0,0,1,0,.29c-.13.23-.81,2.28-1.24,3.62l2.51,2.46a.21.21,0,0,1,0,.31A.19.19,0,0,1,1217,330.15Z" transform="translate(-4.61 -98.53)"/>
        <path class="cls-1" d="M1212.94,330.64a.21.21,0,0,1-.18-.09l-1.56-2.32.91-2.78a.21.21,0,0,1,.27-.14.21.21,0,0,1,.14.27l-.83,2.58,1.44,2.14a.22.22,0,0,1-.19.34Z" transform="translate(-4.61 -98.53)"/>
        <path class="cls-1" d="M1211.94,341.57l-.08,0a.22.22,0,0,1-.13-.28l1.91-5.31,4.14-1.24a.22.22,0,0,1,.12.43l-3.92,1.16-1.84,5.11A.22.22,0,0,1,1211.94,341.57Z" transform="translate(-4.61 -98.53)"/>
        <path class="cls-1" d="M1214.81,344.14l-.07,0a.21.21,0,0,1-.14-.28l1.86-5.47.11,0,5.4-1.6a.22.22,0,0,1,.28.14.23.23,0,0,1-.15.28l-5.3,1.57L1215,344A.24.24,0,0,1,1214.81,344.14Z" transform="translate(-4.61 -98.53)"/>
        <path class="cls-1" d="M1217.18,346.5h-.09a.22.22,0,0,1-.11-.29l2.28-5.24,4.91-1.82a.22.22,0,0,1,.28.13.21.21,0,0,1-.13.29l-4.73,1.75-2.21,5.06A.22.22,0,0,1,1217.18,346.5Z" transform="translate(-4.61 -98.53)"/>
      </g>
    </g>
    <g id="Snowflake_3" data-name="Snowflake 3">
      <g>
        <path class="cls-4" d="M347.16,957A10.19,10.19,0,1,1,359,948.78,10.19,10.19,0,0,1,347.16,957Z" transform="translate(-4.61 -98.53)"/>
        <path class="cls-4" d="M303.33,976.74c-5.84-1-9.94-5.5-9.14-10s6.18-7.23,12-6.19,9.94,5.51,9.14,10S309.18,977.79,303.33,976.74Z" transform="translate(-4.61 -98.53)"/>
        <path class="cls-4" d="M236.38,930.14a10.75,10.75,0,1,1,15,2.67A10.76,10.76,0,0,1,236.38,930.14Z" transform="translate(-4.61 -98.53)"/>
        <path class="cls-4" d="M250.41,887.46a9,9,0,1,1,10.41-7.25A9,9,0,0,1,250.41,887.46Z" transform="translate(-4.61 -98.53)"/>
        <path class="cls-4" d="M350.89,909.58c-4.87-.87-8-6.06-7-11.6s5.74-9.33,10.62-8.46,8,6.07,7,11.61S355.77,910.45,350.89,909.58Z" transform="translate(-4.61 -98.53)"/>
        <path class="cls-4" d="M294.23,859.85c-5.54-1-9.12-6.9-8-13.2s6.52-10.6,12.06-9.61,9.12,6.89,8,13.2S299.77,860.84,294.23,859.85Z" transform="translate(-4.61 -98.53)"/>
        <path class="cls-4" d="M347.16,875.17c-4.88-.87-8-6.07-7-11.61s5.74-9.32,10.61-8.45,8,6.06,7,11.6S352,876,347.16,875.17Z" transform="translate(-4.61 -98.53)"/>
        <path class="cls-4" d="M257.68,959.44c-4.87-.87-8-6.07-7-11.61s5.74-9.32,10.61-8.46,8,6.07,7,11.61S262.55,960.31,257.68,959.44Z" transform="translate(-4.61 -98.53)"/>
        <line class="cls-5" x1="339.02" y1="771.38" x2="257.48" y2="848.46"/>
        <line class="cls-5" x1="339.02" y1="802.58" x2="249.54" y2="822.89"/>
        <line class="cls-5" x1="291.66" y1="759.6" x2="298.25" y2="861.91"/>
        <line class="cls-5" x1="255.71" y1="783.44" x2="341.96" y2="841.14"/>
        <path class="cls-17" d="M329.79,979.69" transform="translate(-4.61 -98.53)"/>
      </g>
    </g>
    <g id="Snowflake_2" data-name="Snowflake 2">
      <g>
        <path class="cls-4" d="M2006,721.69a10.19,10.19,0,1,1,11.82-8.24A10.19,10.19,0,0,1,2006,721.69Z" transform="translate(-4.61 -98.53)"/>
        <path class="cls-4" d="M1962.14,741.42c-5.84-1-9.94-5.51-9.14-10s6.18-7.23,12-6.18,9.94,5.5,9.14,10S1968,742.47,1962.14,741.42Z" transform="translate(-4.61 -98.53)"/>
        <path class="cls-4" d="M1895.19,694.81a10.76,10.76,0,1,1,15,2.67A10.75,10.75,0,0,1,1895.19,694.81Z" transform="translate(-4.61 -98.53)"/>
        <path class="cls-4" d="M1909.23,652.13a9,9,0,1,1,10.4-7.25A9,9,0,0,1,1909.23,652.13Z" transform="translate(-4.61 -98.53)"/>
        <path class="cls-4" d="M2009.71,674.26c-4.88-.87-8-6.07-7-11.61s5.75-9.32,10.62-8.45,8,6.06,7,11.6S2014.58,675.13,2009.71,674.26Z" transform="translate(-4.61 -98.53)"/>
        <path class="cls-4" d="M1953,624.53c-5.54-1-9.12-6.9-8-13.21s6.52-10.6,12.06-9.61,9.12,6.9,8,13.2S1958.58,625.51,1953,624.53Z" transform="translate(-4.61 -98.53)"/>
        <path class="cls-4" d="M2006,639.84c-4.87-.87-8-6.06-7-11.6s5.74-9.33,10.61-8.46,8,6.07,7,11.61S2010.84,640.71,2006,639.84Z" transform="translate(-4.61 -98.53)"/>
        <path class="cls-4" d="M1916.49,724.11c-4.87-.87-8-6.06-7-11.6s5.74-9.33,10.61-8.46,8,6.07,7,11.61S1921.36,725,1916.49,724.11Z" transform="translate(-4.61 -98.53)"/>
        <line class="cls-18" x1="1997.83" y1="536.05" x2="1916.29" y2="613.14"/>
        <line class="cls-18" x1="1997.83" y1="567.25" x2="1908.35" y2="587.56"/>
        <line class="cls-18" x1="1950.47" y1="524.28" x2="1957.06" y2="626.59"/>
        <line class="cls-18" x1="1914.52" y1="548.11" x2="2000.77" y2="605.81"/>
      </g>
    </g>
    <g id="Snowflake_1" data-name="Snowflake 1">
      <g>
        <path class="cls-4" d="M648,615.57a10.19,10.19,0,1,1,11.83-8.24A10.19,10.19,0,0,1,648,615.57Z" transform="translate(-4.61 -98.53)"/>
        <path class="cls-4" d="M604.17,635.3c-5.85-1-9.94-5.51-9.14-10s6.18-7.23,12-6.19,9.94,5.51,9.14,10S610,636.34,604.17,635.3Z" transform="translate(-4.61 -98.53)"/>
        <path class="cls-4" d="M537.22,588.69a10.75,10.75,0,1,1,15,2.68A10.76,10.76,0,0,1,537.22,588.69Z" transform="translate(-4.61 -98.53)"/>
        <path class="cls-4" d="M551.25,546a9,9,0,1,1,10.41-7.25A9,9,0,0,1,551.25,546Z" transform="translate(-4.61 -98.53)"/>
        <path class="cls-4" d="M651.73,568.14c-4.87-.87-8-6.07-7-11.61s5.74-9.33,10.62-8.45,8,6.06,7,11.6S656.61,569,651.73,568.14Z" transform="translate(-4.61 -98.53)"/>
        <path class="cls-4" d="M595.07,518.4c-5.54-1-9.12-6.9-8-13.19s6.52-10.61,12.06-9.62,9.12,6.9,8,13.2S600.61,519.39,595.07,518.4Z" transform="translate(-4.61 -98.53)"/>
        <path class="cls-4" d="M648,533.72c-4.88-.87-8-6.07-7-11.61s5.75-9.32,10.62-8.45,8,6.06,7,11.61S652.87,534.59,648,533.72Z" transform="translate(-4.61 -98.53)"/>
        <path class="cls-4" d="M558.52,618c-4.87-.87-8-6.07-7-11.61s5.74-9.32,10.61-8.45,8,6.07,7,11.61S563.39,618.86,558.52,618Z" transform="translate(-4.61 -98.53)"/>
        <line class="cls-19" x1="639.85" y1="429.93" x2="558.32" y2="507.01"/>
        <line class="cls-19" x1="639.85" y1="461.13" x2="550.38" y2="481.44"/>
        <line class="cls-19" x1="592.5" y1="418.16" x2="599.09" y2="520.47"/>
        <line class="cls-19" x1="556.55" y1="441.99" x2="642.8" y2="499.69"/>
        <g>
          <path class="cls-20" d="M630.63,638.25" transform="translate(-4.61 -98.53)"/>
          <path class="cls-21" d="M630.63,638.25" transform="translate(-4.61 -98.53)"/>
        </g>
      </g>
    </g>
  </g>
  <g id="Pendants">
    <g id="Baulbaul_10" data-name="Baulbaul 10">
      <g>
        <path class="cls-4" d="M116.07,776.14a7.09,7.09,0,1,1-7.09-7.09A7.08,7.08,0,0,1,116.07,776.14Z" transform="translate(-4.61 -98.53)"/>
        <circle class="cls-1" cx="105.38" cy="657.32" r="7.09"/>
        <polygon class="cls-4" points="95.6 688.83 95.6 694.56 115.96 693.49 114.89 687.9 95.6 688.83"/>
        <path class="cls-1" d="M98.19,802.11l22.38-5s1,4.76,1.9,5.71-24.28,6.9-24.28,6.9l2.85-4.64Z" transform="translate(-4.61 -98.53)"/>
        <rect class="cls-4" x="99.65" y="713.49" width="12.02" height="12.59"/>
        <g>
          <path class="cls-1" d="M110.27,904.27S95,888.32,92.79,877.73s-5.2-27.61,1.94-40.41,12.2-15.14,14.65-15.14h5.11s10.84,6.86,13.93,22.46,3.1,33.56-11.19,51.42Z" transform="translate(-4.61 -98.53)"/>
          <g class="cls-22">
            <g class="cls-13">
              <path class="cls-1" d="M95.32,848.57a3,3,0,1,1-2.95-3.52A3.28,3.28,0,0,1,95.32,848.57Z" transform="translate(-4.61 -98.53)"/>
              <path class="cls-1" d="M95.32,858.27a3,3,0,1,1-2.95-3.52A3.28,3.28,0,0,1,95.32,858.27Z" transform="translate(-4.61 -98.53)"/>
              <path class="cls-1" d="M95.32,868.31a3,3,0,1,1-2.95-3.52A3.28,3.28,0,0,1,95.32,868.31Z" transform="translate(-4.61 -98.53)"/>
              <path class="cls-1" d="M92.75,849s-1.41,10.82-.38,19.79" transform="translate(-4.61 -98.53)"/>
              <path class="cls-1" d="M101.32,849a3.12,3.12,0,1,1-3.12-3.12A3.12,3.12,0,0,1,101.32,849Z" transform="translate(-4.61 -98.53)"/>
              <path class="cls-1" d="M100.81,858.86a2.93,2.93,0,1,1-2.93-2.93A2.94,2.94,0,0,1,100.81,858.86Z" transform="translate(-4.61 -98.53)"/>
              <path class="cls-1" d="M100.84,868a3,3,0,1,1-3-3A3,3,0,0,1,100.84,868Z" transform="translate(-4.61 -98.53)"/>
              <path class="cls-1" d="M107.89,849.45a3.29,3.29,0,1,1-3.28-3.28A3.28,3.28,0,0,1,107.89,849.45Z" transform="translate(-4.61 -98.53)"/>
              <path class="cls-1" d="M108.26,858.86a2.93,2.93,0,1,1-2.93-2.93A2.94,2.94,0,0,1,108.26,858.86Z" transform="translate(-4.61 -98.53)"/>
              <path class="cls-1" d="M107.57,868a3,3,0,1,1-3-3A3,3,0,0,1,107.57,868Z" transform="translate(-4.61 -98.53)"/>
              <path class="cls-1" d="M116,849.45a3.85,3.85,0,1,1-3.85-3.84A3.85,3.85,0,0,1,116,849.45Z" transform="translate(-4.61 -98.53)"/>
              <circle class="cls-1" cx="107.93" cy="761.2" r="2.91"/>
              <path class="cls-1" d="M116.94,868.76a3.53,3.53,0,1,1-3.52-3.53A3.53,3.53,0,0,1,116.94,868.76Z" transform="translate(-4.61 -98.53)"/>
              <path class="cls-1" d="M122.07,849.78a2.57,2.57,0,1,1-2.57-2.57A2.57,2.57,0,0,1,122.07,849.78Z" transform="translate(-4.61 -98.53)"/>
              <path class="cls-1" d="M122.35,859.14a2.85,2.85,0,1,1-2.85-2.84A2.85,2.85,0,0,1,122.35,859.14Z" transform="translate(-4.61 -98.53)"/>
              <path class="cls-1" d="M123,868A3.09,3.09,0,1,1,119.9,865,3.08,3.08,0,0,1,123,868Z" transform="translate(-4.61 -98.53)"/>
              <path class="cls-1" d="M130.08,849.78a3.53,3.53,0,1,1-3.53-3.53A3.53,3.53,0,0,1,130.08,849.78Z" transform="translate(-4.61 -98.53)"/>
              <path class="cls-1" d="M130.08,859.73a2.81,2.81,0,1,1-2.81-2.8A2.8,2.8,0,0,1,130.08,859.73Z" transform="translate(-4.61 -98.53)"/>
              <path class="cls-1" d="M130.08,868.76a3.53,3.53,0,1,1-3.53-3.53A3.53,3.53,0,0,1,130.08,868.76Z" transform="translate(-4.61 -98.53)"/>
              <path class="cls-1" d="M98.2,849s-.6,16,0,19.34" transform="translate(-4.61 -98.53)"/>
              <path class="cls-1" d="M104.61,849.45s.46,13,0,18.59" transform="translate(-4.61 -98.53)"/>
              <path class="cls-1" d="M111.74,849.78s1.84,15.12,1.68,18.26" transform="translate(-4.61 -98.53)"/>
              <path class="cls-1" d="M119.5,849.78s.51,13.44.4,17" transform="translate(-4.61 -98.53)"/>
              <path class="cls-1" d="M126.55,849s1.42,15.7.72,19.07" transform="translate(-4.61 -98.53)"/>
              <path class="cls-1" d="M91,848.36s24.5,2.55,36.31,2.22" transform="translate(-4.61 -98.53)"/>
              <path class="cls-1" d="M92,858.74s26.15,1.7,35.27,1" transform="translate(-4.61 -98.53)"/>
              <path class="cls-1" d="M91,868.76s31.31.78,36.51.66" transform="translate(-4.61 -98.53)"/>
            </g>
          </g>
        </g>
        <rect class="cls-23" x="103.5" y="442.52" width="1.76" height="208.86"/>
        <g>
          <path class="cls-24" d="M124.16,874.5a.18.18,0,0,1-.15-.06l-15.43-15-15.94-10a.22.22,0,0,1-.07-.3.24.24,0,0,1,.31-.07l16,10,15.47,15a.22.22,0,0,1,0,.31A.23.23,0,0,1,124.16,874.5Z" transform="translate(-4.61 -98.53)"/>
          <path class="cls-24" d="M95.51,873.2a.25.25,0,0,1-.16-.06.21.21,0,0,1,0-.31l13.18-13.64,4.65-19.07a.23.23,0,0,1,.27-.16.22.22,0,0,1,.16.27l-4.68,19.18,0,0L95.66,873.14A.22.22,0,0,1,95.51,873.2Z" transform="translate(-4.61 -98.53)"/>
          <path class="cls-24" d="M108.73,859.52a.21.21,0,0,1-.21-.17.21.21,0,0,1,.16-.26l20.87-4.81a.21.21,0,0,1,.26.17.21.21,0,0,1-.16.26l-20.87,4.81Z" transform="translate(-4.61 -98.53)"/>
          <path class="cls-24" d="M90.7,857.07a.21.21,0,0,1-.17-.09.23.23,0,0,1,0-.31l5.91-4.36L98.17,844a.22.22,0,0,1,.26-.16.2.2,0,0,1,.17.25l-1.72,8.5-.07,0-6,4.41A.23.23,0,0,1,90.7,857.07Z" transform="translate(-4.61 -98.53)"/>
          <path class="cls-24" d="M94.05,858.27a.25.25,0,0,1-.18-.08.23.23,0,0,1,0-.31l5.35-4.2,1.67-6.92a.22.22,0,0,1,.27-.16.21.21,0,0,1,.16.26l-1.71,7.08-.06,0-5.41,4.25A.22.22,0,0,1,94.05,858.27Z" transform="translate(-4.61 -98.53)"/>
          <path class="cls-24" d="M97.75,859.19a.22.22,0,0,1-.13-.4l4.83-3.43,1.1-4.82a.24.24,0,0,1,.27-.16.22.22,0,0,1,.16.26l-1.14,5-5,3.52A.19.19,0,0,1,97.75,859.19Z" transform="translate(-4.61 -98.53)"/>
          <path class="cls-24" d="M112.54,843.63l-.07-.07a37.35,37.35,0,0,0-3.64-2.94.22.22,0,0,1-.15-.4c.16-.11.36-.25,4,2.94l6.58-1.09a.22.22,0,1,1,.07.43Z" transform="translate(-4.61 -98.53)"/>
          <path class="cls-24" d="M111.77,846.67l-4-3.35a.22.22,0,1,1,.28-.33l3.8,3.22,5.71-.84a.23.23,0,0,1,.25.18.22.22,0,0,1-.19.25Z" transform="translate(-4.61 -98.53)"/>
          <path class="cls-24" d="M110.77,850.66l-3.06-2.7a.22.22,0,0,1,.29-.33l2.89,2.56,5.46-1.2a.22.22,0,0,1,.26.17.22.22,0,0,1-.17.26Z" transform="translate(-4.61 -98.53)"/>
          <path class="cls-24" d="M104.92,869a.23.23,0,0,1-.21-.15l-1.22-4.11-4.42-1a.21.21,0,0,1-.17-.26.21.21,0,0,1,.26-.16l4.67,1,1.3,4.35a.21.21,0,0,1-.15.27Z" transform="translate(-4.61 -98.53)"/>
          <path class="cls-24" d="M102.37,872.65a.21.21,0,0,1-.21-.15l-1.41-4.73L95.13,866a.22.22,0,1,1,.13-.41l5.84,1.88,1.48,5a.21.21,0,0,1-.15.27Z" transform="translate(-4.61 -98.53)"/>
          <path class="cls-24" d="M99.33,876a.21.21,0,0,1-.21-.16l-1.51-5.06-5-1.65a.23.23,0,0,1-.14-.28.22.22,0,0,1,.28-.14L98,870.45l1.57,5.28a.23.23,0,0,1-.15.28Z" transform="translate(-4.61 -98.53)"/>
          <path class="cls-24" d="M130.35,862.83a.23.23,0,0,1-.17-.07L124.34,856l2.25-5.43a.23.23,0,0,1,.29-.12.23.23,0,0,1,.12.29l-2.15,5.18,5.66,6.53a.22.22,0,0,1,0,.31A.24.24,0,0,1,130.35,862.83Z" transform="translate(-4.61 -98.53)"/>
          <path class="cls-24" d="M123.41,860.77a.21.21,0,0,1-.18-.11l-2.58-4.14,1.51-4a.22.22,0,0,1,.28-.13.23.23,0,0,1,.13.29l-1.44,3.78,2.47,4a.24.24,0,0,1-.07.31Z" transform="translate(-4.61 -98.53)"/>
          <path class="cls-24" d="M119.47,860.8a.2.2,0,0,1-.15-.06l-2.71-2.66,0-.13c1.2-3.74,1.33-3.86,1.38-3.91a.22.22,0,0,1,.31,0,.23.23,0,0,1,0,.29c-.13.23-.81,2.28-1.24,3.62l2.51,2.46a.23.23,0,0,1,0,.31A.21.21,0,0,1,119.47,860.8Z" transform="translate(-4.61 -98.53)"/>
          <path class="cls-24" d="M115.45,861.3a.22.22,0,0,1-.18-.1l-1.56-2.32.9-2.78a.23.23,0,0,1,.28-.14.22.22,0,0,1,.14.28l-.84,2.57,1.44,2.14a.22.22,0,0,1-.06.31A.19.19,0,0,1,115.45,861.3Z" transform="translate(-4.61 -98.53)"/>
          <path class="cls-24" d="M114.44,872.22h-.07a.22.22,0,0,1-.14-.28l1.92-5.32,4.13-1.23a.22.22,0,0,1,.28.15.22.22,0,0,1-.15.27L116.48,867l-1.83,5.11A.23.23,0,0,1,114.44,872.22Z" transform="translate(-4.61 -98.53)"/>
          <path class="cls-24" d="M117.31,874.79h-.07a.22.22,0,0,1-.13-.28L119,869l.11,0,5.4-1.61a.21.21,0,0,1,.27.15.22.22,0,0,1-.15.27l-5.29,1.57-1.79,5.27A.23.23,0,0,1,117.31,874.79Z" transform="translate(-4.61 -98.53)"/>
          <path class="cls-24" d="M119.69,877.16l-.09,0a.23.23,0,0,1-.12-.29l2.29-5.23,4.91-1.82a.21.21,0,0,1,.28.13.22.22,0,0,1-.13.28L122.09,872l-2.2,5.07A.23.23,0,0,1,119.69,877.16Z" transform="translate(-4.61 -98.53)"/>
        </g>
      </g>
    </g>
    <g id="Baulbaul_9" data-name="Baulbaul 9">
      <g>
        <polygon class="cls-4" points="478.5 781.17 478.5 786.9 498.86 785.83 497.79 780.24 478.5 781.17"/>
        <path class="cls-4" d="M481.08,894.45l22.38-5s1,4.76,1.91,5.71-24.29,6.91-24.29,6.91l2.86-4.65Z" transform="translate(-4.61 -98.53)"/>
        <rect class="cls-4" x="486.01" y="686.27" width="1.76" height="98.98"/>
        <path class="cls-1" d="M491.49,986.94S476.23,971,474,960.4,468.81,932.78,476,920s12.19-15.13,14.64-15.13h5.12s10.83,6.86,13.93,22.45,3.09,33.57-11.2,51.43Z" transform="translate(-4.61 -98.53)"/>
        <g class="cls-25">
          <g>
            <path class="cls-24" d="M464.79,923c0,3.54-2.39,6.4-5.35,6.4s-5.34-2.86-5.34-6.4,2.39-6.39,5.34-6.39S464.79,919.49,464.79,923Z" transform="translate(-4.61 -98.53)"/>
            <ellipse class="cls-24" cx="454.84" cy="842.1" rx="5.35" ry="6.39"/>
            <path class="cls-24" d="M464.79,958.83c0,3.54-2.39,6.4-5.35,6.4s-5.34-2.86-5.34-6.4,2.39-6.39,5.34-6.39S464.79,955.3,464.79,958.83Z" transform="translate(-4.61 -98.53)"/>
            <path class="cls-24" d="M460.14,923.75s-2.56,19.62-.7,35.89" transform="translate(-4.61 -98.53)"/>
            <circle class="cls-24" cx="465.41" cy="825.23" r="5.67"/>
            <path class="cls-24" d="M474.76,941.69a5.32,5.32,0,1,1-5.32-5.31A5.32,5.32,0,0,1,474.76,941.69Z" transform="translate(-4.61 -98.53)"/>
            <path class="cls-24" d="M474.81,958.33a5.38,5.38,0,1,1-5.37-5.37A5.37,5.37,0,0,1,474.81,958.33Z" transform="translate(-4.61 -98.53)"/>
            <path class="cls-24" d="M487.6,924.62a6,6,0,1,1-6-6A6,6,0,0,1,487.6,924.62Z" transform="translate(-4.61 -98.53)"/>
            <path class="cls-24" d="M488.27,941.69a5.32,5.32,0,1,1-5.32-5.31A5.32,5.32,0,0,1,488.27,941.69Z" transform="translate(-4.61 -98.53)"/>
            <path class="cls-24" d="M487,958.33a5.38,5.38,0,1,1-5.38-5.37A5.38,5.38,0,0,1,487,958.33Z" transform="translate(-4.61 -98.53)"/>
            <path class="cls-24" d="M502.38,924.62a7,7,0,1,1-7-7A7,7,0,0,1,502.38,924.62Z" transform="translate(-4.61 -98.53)"/>
            <circle class="cls-24" cx="491.42" cy="844.74" r="5.28"/>
            <path class="cls-24" d="M504,959.64a6.4,6.4,0,1,1-6.39-6.39A6.39,6.39,0,0,1,504,959.64Z" transform="translate(-4.61 -98.53)"/>
            <path class="cls-24" d="M513.32,925.2a4.65,4.65,0,1,1-4.65-4.65A4.65,4.65,0,0,1,513.32,925.2Z" transform="translate(-4.61 -98.53)"/>
            <path class="cls-24" d="M513.83,942.2a5.16,5.16,0,1,1-5.16-5.16A5.16,5.16,0,0,1,513.83,942.2Z" transform="translate(-4.61 -98.53)"/>
            <path class="cls-24" d="M515,958.33a5.6,5.6,0,1,1-5.6-5.59A5.6,5.6,0,0,1,515,958.33Z" transform="translate(-4.61 -98.53)"/>
            <path class="cls-24" d="M527.85,925.2a6.4,6.4,0,1,1-6.4-6.39A6.41,6.41,0,0,1,527.85,925.2Z" transform="translate(-4.61 -98.53)"/>
            <path class="cls-24" d="M527.85,943.27a5.09,5.09,0,1,1-5.09-5.09A5.09,5.09,0,0,1,527.85,943.27Z" transform="translate(-4.61 -98.53)"/>
            <path class="cls-24" d="M527.85,959.64a6.4,6.4,0,1,1-6.4-6.39A6.4,6.4,0,0,1,527.85,959.64Z" transform="translate(-4.61 -98.53)"/>
            <path class="cls-24" d="M470,923.75s-1.08,29,0,35.08" transform="translate(-4.61 -98.53)"/>
            <path class="cls-24" d="M481.64,924.62s.85,23.57,0,33.71" transform="translate(-4.61 -98.53)"/>
            <path class="cls-24" d="M494.58,925.2s3.34,27.44,3.05,33.13" transform="translate(-4.61 -98.53)"/>
            <path class="cls-24" d="M508.67,925.2s.91,24.41.72,30.76" transform="translate(-4.61 -98.53)"/>
            <path class="cls-24" d="M521.45,923.75s2.57,28.47,1.31,34.58" transform="translate(-4.61 -98.53)"/>
            <path class="cls-24" d="M456.88,922.64s44.46,4.63,65.88,4" transform="translate(-4.61 -98.53)"/>
            <path class="cls-24" d="M458.77,941.48c.06.06,47.45,3.08,64,1.79" transform="translate(-4.61 -98.53)"/>
            <path class="cls-24" d="M456.88,959.64s56.82,1.41,66.23,1.2" transform="translate(-4.61 -98.53)"/>
          </g>
        </g>
      </g>
    </g>
    <g id="Baulbaul_8" data-name="Baulbaul 8">
      <g>
        <rect class="cls-14" x="702.12" y="770.03" width="1.76" height="140.96"/>
        <path class="cls-14" d="M707.61,1091.61s-15.26-15.95-17.48-26.55-5.2-27.61,2-40.41,12.19-15.13,14.64-15.13h5.12s10.83,6.85,13.92,22.45,3.1,33.57-11.19,51.43Z" transform="translate(-4.61 -98.53)"/>
        <g class="cls-26">
          <g>
            <path class="cls-24" d="M677.27,1025.15c0,4-2.72,7.28-6.09,7.28s-6.08-3.26-6.08-7.28,2.72-7.28,6.08-7.28S677.27,1021.13,677.27,1025.15Z" transform="translate(-4.61 -98.53)"/>
            <path class="cls-24" d="M677.27,1045.19c0,4-2.72,7.28-6.09,7.28s-6.08-3.26-6.08-7.28,2.72-7.28,6.08-7.28S677.27,1041.17,677.27,1045.19Z" transform="translate(-4.61 -98.53)"/>
            <path class="cls-24" d="M677.27,1065.93c0,4-2.72,7.28-6.09,7.28s-6.08-3.26-6.08-7.28,2.72-7.28,6.08-7.28S677.27,1061.91,677.27,1065.93Z" transform="translate(-4.61 -98.53)"/>
            <path class="cls-24" d="M672,1026s-2.91,22.33-.8,40.87" transform="translate(-4.61 -98.53)"/>
            <path class="cls-24" d="M689.68,1026a6.45,6.45,0,1,1-6.45-6.46A6.45,6.45,0,0,1,689.68,1026Z" transform="translate(-4.61 -98.53)"/>
            <path class="cls-24" d="M688.63,1046.41a6.06,6.06,0,1,1-6.06-6.05A6.06,6.06,0,0,1,688.63,1046.41Z" transform="translate(-4.61 -98.53)"/>
            <circle class="cls-24" cx="677.96" cy="966.83" r="6.12"/>
            <path class="cls-24" d="M703.25,1027a6.79,6.79,0,1,1-6.78-6.78A6.79,6.79,0,0,1,703.25,1027Z" transform="translate(-4.61 -98.53)"/>
            <path class="cls-24" d="M704,1046.41a6.06,6.06,0,1,1-6.06-6.05A6.06,6.06,0,0,1,704,1046.41Z" transform="translate(-4.61 -98.53)"/>
            <path class="cls-24" d="M702.59,1065.36a6.12,6.12,0,1,1-6.12-6.12A6.12,6.12,0,0,1,702.59,1065.36Z" transform="translate(-4.61 -98.53)"/>
            <path class="cls-24" d="M720.08,1027a7.94,7.94,0,1,1-7.94-7.94A7.93,7.93,0,0,1,720.08,1027Z" transform="translate(-4.61 -98.53)"/>
            <path class="cls-24" d="M718.86,1048.2a6,6,0,1,1-6-6A6,6,0,0,1,718.86,1048.2Z" transform="translate(-4.61 -98.53)"/>
            <path class="cls-24" d="M722,1066.85a7.28,7.28,0,1,1-7.28-7.28A7.28,7.28,0,0,1,722,1066.85Z" transform="translate(-4.61 -98.53)"/>
            <path class="cls-24" d="M732.54,1027.63a5.3,5.3,0,1,1-5.3-5.29A5.3,5.3,0,0,1,732.54,1027.63Z" transform="translate(-4.61 -98.53)"/>
            <path class="cls-24" d="M733.12,1047a5.88,5.88,0,1,1-5.88-5.87A5.87,5.87,0,0,1,733.12,1047Z" transform="translate(-4.61 -98.53)"/>
            <path class="cls-24" d="M734.44,1065.36a6.37,6.37,0,1,1-6.37-6.37A6.37,6.37,0,0,1,734.44,1065.36Z" transform="translate(-4.61 -98.53)"/>
            <path class="cls-24" d="M749.09,1027.63a7.29,7.29,0,1,1-7.29-7.28A7.28,7.28,0,0,1,749.09,1027.63Z" transform="translate(-4.61 -98.53)"/>
            <path class="cls-24" d="M749.09,1048.2a5.8,5.8,0,1,1-5.8-5.79A5.8,5.8,0,0,1,749.09,1048.2Z" transform="translate(-4.61 -98.53)"/>
            <path class="cls-24" d="M749.09,1066.85a7.29,7.29,0,1,1-7.29-7.28A7.28,7.28,0,0,1,749.09,1066.85Z" transform="translate(-4.61 -98.53)"/>
            <path class="cls-24" d="M683.23,1026s-1.23,33.08,0,40" transform="translate(-4.61 -98.53)"/>
            <path class="cls-24" d="M696.47,1027s1,26.84,0,38.39" transform="translate(-4.61 -98.53)"/>
            <path class="cls-24" d="M711.2,1027.63s3.8,31.25,3.47,37.73" transform="translate(-4.61 -98.53)"/>
            <path class="cls-24" d="M727.24,1027.63s1,27.79.83,35" transform="translate(-4.61 -98.53)"/>
            <path class="cls-24" d="M741.8,1026s2.93,32.42,1.49,39.38" transform="translate(-4.61 -98.53)"/>
            <path class="cls-24" d="M668.27,1024.71s50.63,5.28,75,4.6" transform="translate(-4.61 -98.53)"/>
            <path class="cls-24" d="M670.41,1046.17c.08.07,54,3.5,72.88,2" transform="translate(-4.61 -98.53)"/>
            <path class="cls-24" d="M668.27,1066.85s64.7,1.61,75.42,1.37" transform="translate(-4.61 -98.53)"/>
          </g>
        </g>
      </g>
    </g>
    <g id="Baulbaul_7" data-name="Baulbaul 7">
      <g>
        <polygon class="cls-4" points="1619.83 625.92 1619.83 631.66 1640.19 630.59 1639.12 624.99 1619.83 625.92"/>
        <path class="cls-4" d="M1622.41,739.21l22.38-5s1,4.76,1.91,5.72-24.29,6.9-24.29,6.9l2.86-4.64Z" transform="translate(-4.61 -98.53)"/>
        <rect class="cls-4" x="1623.88" y="650.59" width="12.02" height="10.16"/>
        <path class="cls-1" d="M1634.5,841.36s-15.26-15.94-17.48-26.54-5.2-27.61,1.94-40.41,12.2-15.13,14.64-15.13h5.12s10.84,6.86,13.93,22.45,3.1,33.57-11.19,51.43Z" transform="translate(-4.61 -98.53)"/>
        <g class="cls-27">
          <g>
            <path class="cls-24" d="M1615,784.51c0,2.85-1.94,5.17-4.33,5.17s-4.32-2.32-4.32-5.17,1.93-5.17,4.32-5.17S1615,781.65,1615,784.51Z" transform="translate(-4.61 -98.53)"/>
            <path class="cls-24" d="M1615,798.74c0,2.85-1.94,5.17-4.33,5.17s-4.32-2.32-4.32-5.17,1.93-5.17,4.32-5.17S1615,795.88,1615,798.74Z" transform="translate(-4.61 -98.53)"/>
            <ellipse class="cls-24" cx="1606.03" cy="714.94" rx="4.32" ry="5.17"/>
            <path class="cls-24" d="M1611.2,785.1s-2.07,15.86-.57,29" transform="translate(-4.61 -98.53)"/>
            <path class="cls-24" d="M1623.77,785.1a4.59,4.59,0,1,1-4.58-4.59A4.59,4.59,0,0,1,1623.77,785.1Z" transform="translate(-4.61 -98.53)"/>
            <path class="cls-24" d="M1623,799.61a4.31,4.31,0,1,1-4.3-4.3A4.31,4.31,0,0,1,1623,799.61Z" transform="translate(-4.61 -98.53)"/>
            <path class="cls-24" d="M1623.06,813.06a4.35,4.35,0,1,1-4.34-4.35A4.34,4.34,0,0,1,1623.06,813.06Z" transform="translate(-4.61 -98.53)"/>
            <path class="cls-24" d="M1633.4,785.8a4.82,4.82,0,1,1-4.81-4.81A4.81,4.81,0,0,1,1633.4,785.8Z" transform="translate(-4.61 -98.53)"/>
            <path class="cls-24" d="M1633.94,799.61a4.3,4.3,0,1,1-4.3-4.3A4.3,4.3,0,0,1,1633.94,799.61Z" transform="translate(-4.61 -98.53)"/>
            <path class="cls-24" d="M1632.93,813.06a4.35,4.35,0,1,1-4.34-4.35A4.34,4.34,0,0,1,1632.93,813.06Z" transform="translate(-4.61 -98.53)"/>
            <circle class="cls-24" cx="1635.11" cy="687.27" r="5.64"/>
            <path class="cls-24" d="M1644.49,800.88a4.27,4.27,0,1,1-4.27-4.27A4.27,4.27,0,0,1,1644.49,800.88Z" transform="translate(-4.61 -98.53)"/>
            <path class="cls-24" d="M1646.68,814.12a5.17,5.17,0,1,1-5.17-5.17A5.18,5.18,0,0,1,1646.68,814.12Z" transform="translate(-4.61 -98.53)"/>
            <path class="cls-24" d="M1654.2,786.27a3.76,3.76,0,1,1-3.76-3.76A3.76,3.76,0,0,1,1654.2,786.27Z" transform="translate(-4.61 -98.53)"/>
            <path class="cls-24" d="M1654.61,800a4.17,4.17,0,1,1-4.17-4.17A4.17,4.17,0,0,1,1654.61,800Z" transform="translate(-4.61 -98.53)"/>
            <path class="cls-24" d="M1655.55,813.06a4.53,4.53,0,1,1-4.52-4.53A4.52,4.52,0,0,1,1655.55,813.06Z" transform="translate(-4.61 -98.53)"/>
            <path class="cls-24" d="M1666,786.27a5.17,5.17,0,1,1-5.17-5.17A5.17,5.17,0,0,1,1666,786.27Z" transform="translate(-4.61 -98.53)"/>
            <path class="cls-24" d="M1666,800.88a4.12,4.12,0,1,1-4.11-4.11A4.11,4.11,0,0,1,1666,800.88Z" transform="translate(-4.61 -98.53)"/>
            <path class="cls-24" d="M1666,814.12a5.17,5.17,0,1,1-5.17-5.17A5.18,5.18,0,0,1,1666,814.12Z" transform="translate(-4.61 -98.53)"/>
            <path class="cls-24" d="M1619.19,785.1s-.88,23.49,0,28.37" transform="translate(-4.61 -98.53)"/>
            <path class="cls-24" d="M1628.59,785.8s.68,19.06,0,27.26" transform="translate(-4.61 -98.53)"/>
            <path class="cls-24" d="M1639.05,786.27s2.69,22.19,2.46,26.79" transform="translate(-4.61 -98.53)"/>
            <path class="cls-24" d="M1650.44,786.27s.74,19.73.59,24.88" transform="translate(-4.61 -98.53)"/>
            <path class="cls-24" d="M1660.78,785.1s2.07,23,1.06,28" transform="translate(-4.61 -98.53)"/>
            <path class="cls-24" d="M1608.56,784.2s36,3.74,53.28,3.26" transform="translate(-4.61 -98.53)"/>
            <path class="cls-24" d="M1610.08,799.43c.06.05,38.38,2.49,51.76,1.45" transform="translate(-4.61 -98.53)"/>
            <path class="cls-24" d="M1608.56,814.12s45.94,1.14,53.56,1" transform="translate(-4.61 -98.53)"/>
          </g>
        </g>
        <rect class="cls-23" x="1629.36" y="464.41" width="1.76" height="139.49"/>
      </g>
    </g>
    <g id="Baulbaul_6" data-name="Baulbaul 6">
      <g>
        <circle class="cls-4" cx="2016.32" cy="872.15" r="7.09"/>
        <path class="cls-1" d="M2029,950.37a7.09,7.09,0,1,1-7.09-7.09A7.08,7.08,0,0,1,2029,950.37Z" transform="translate(-4.61 -98.53)"/>
        <polygon class="cls-4" points="2007.55 883.36 2007.55 889.09 2027.9 888.02 2026.83 882.43 2007.55 883.36"/>
        <path class="cls-1" d="M2010.13,996.64l22.38-5s1,4.76,1.9,5.71-24.28,6.9-24.28,6.9l2.86-4.64Z" transform="translate(-4.61 -98.53)"/>
        <rect class="cls-4" x="2011.6" y="908.02" width="12.02" height="10.17"/>
        <g>
          <path class="cls-1" d="M2022.21,1098.8s-15.26-16-17.48-26.54-5.19-27.61,2-40.41,12.19-15.14,14.64-15.14h5.12s10.83,6.86,13.93,22.45,3.09,33.58-11.19,51.43Z" transform="translate(-4.61 -98.53)"/>
          <g class="cls-28">
            <g class="cls-13">
              <path class="cls-1" d="M2007.26,1043.1a3,3,0,1,1-3-3.52A3.28,3.28,0,0,1,2007.26,1043.1Z" transform="translate(-4.61 -98.53)"/>
              <path class="cls-1" d="M2007.26,1052.8a3,3,0,1,1-3-3.52A3.28,3.28,0,0,1,2007.26,1052.8Z" transform="translate(-4.61 -98.53)"/>
              <path class="cls-1" d="M2007.26,1062.84a3,3,0,1,1-3-3.52A3.28,3.28,0,0,1,2007.26,1062.84Z" transform="translate(-4.61 -98.53)"/>
              <path class="cls-1" d="M2004.7,1043.5s-1.41,10.82-.39,19.78" transform="translate(-4.61 -98.53)"/>
              <path class="cls-1" d="M2013.27,1043.5a3.13,3.13,0,1,1-3.13-3.12A3.13,3.13,0,0,1,2013.27,1043.5Z" transform="translate(-4.61 -98.53)"/>
              <circle class="cls-1" cx="2005.22" cy="954.87" r="2.93"/>
              <path class="cls-1" d="M2012.79,1062.56a3,3,0,1,1-3-3A3,3,0,0,1,2012.79,1062.56Z" transform="translate(-4.61 -98.53)"/>
              <path class="cls-1" d="M2019.83,1044a3.28,3.28,0,1,1-3.28-3.28A3.28,3.28,0,0,1,2019.83,1044Z" transform="translate(-4.61 -98.53)"/>
              <circle class="cls-1" cx="2012.67" cy="954.87" r="2.93"/>
              <path class="cls-1" d="M2019.52,1062.56a3,3,0,1,1-3-3A3,3,0,0,1,2019.52,1062.56Z" transform="translate(-4.61 -98.53)"/>
              <path class="cls-1" d="M2028,1044a3.85,3.85,0,1,1-3.84-3.84A3.84,3.84,0,0,1,2028,1044Z" transform="translate(-4.61 -98.53)"/>
              <circle class="cls-1" cx="2019.88" cy="955.74" r="2.91"/>
              <path class="cls-1" d="M2028.89,1063.28a3.53,3.53,0,1,1-3.53-3.52A3.53,3.53,0,0,1,2028.89,1063.28Z" transform="translate(-4.61 -98.53)"/>
              <circle class="cls-1" cx="2031.45" cy="1044.3" r="2.56" transform="translate(281.67 2419.46) rotate(-67.39)"/>
              <circle class="cls-1" cx="2031.45" cy="1053.68" r="2.84" transform="translate(970.89 2985.42) rotate(-89.94)"/>
              <path class="cls-1" d="M2034.93,1062.56a3.09,3.09,0,1,1-3.08-3.08A3.08,3.08,0,0,1,2034.93,1062.56Z" transform="translate(-4.61 -98.53)"/>
              <path class="cls-1" d="M2042,1044.3a3.53,3.53,0,1,1-3.52-3.52A3.53,3.53,0,0,1,2042,1044.3Z" transform="translate(-4.61 -98.53)"/>
              <path class="cls-1" d="M2042,1054.26a2.81,2.81,0,1,1-2.8-2.8A2.81,2.81,0,0,1,2042,1054.26Z" transform="translate(-4.61 -98.53)"/>
              <path class="cls-1" d="M2042,1063.28a3.53,3.53,0,1,1-3.52-3.52A3.53,3.53,0,0,1,2042,1063.28Z" transform="translate(-4.61 -98.53)"/>
              <path class="cls-1" d="M2010.14,1043.5s-.59,16,0,19.34" transform="translate(-4.61 -98.53)"/>
              <path class="cls-1" d="M2016.55,1044s.47,13,0,18.58" transform="translate(-4.61 -98.53)"/>
              <path class="cls-1" d="M2023.68,1044.3s1.84,15.13,1.68,18.26" transform="translate(-4.61 -98.53)"/>
              <path class="cls-1" d="M2031.45,1044.3s.5,13.46.4,17" transform="translate(-4.61 -98.53)"/>
              <path class="cls-1" d="M2038.5,1043.5s1.41,15.69.72,19.06" transform="translate(-4.61 -98.53)"/>
              <path class="cls-1" d="M2002.9,1042.89s24.51,2.56,36.32,2.22" transform="translate(-4.61 -98.53)"/>
              <path class="cls-1" d="M2003.94,1053.27s26.16,1.7,35.28,1" transform="translate(-4.61 -98.53)"/>
              <path class="cls-1" d="M2002.9,1063.28s31.32.78,36.51.67" transform="translate(-4.61 -98.53)"/>
            </g>
          </g>
        </g>
        <rect class="cls-4" x="2013.69" y="655.29" width="1.76" height="208.86"/>
        <g>
          <path class="cls-24" d="M2036.11,1069a.2.2,0,0,1-.15-.06l-15.44-15-15.93-10a.21.21,0,0,1-.07-.3.22.22,0,0,1,.3-.07l16,10,15.47,15a.22.22,0,0,1,0,.31A.25.25,0,0,1,2036.11,1069Z" transform="translate(-4.61 -98.53)"/>
          <path class="cls-24" d="M2007.45,1067.73a.2.2,0,0,1-.15-.06.22.22,0,0,1,0-.31l13.18-13.64,4.66-19.06a.22.22,0,0,1,.26-.17.24.24,0,0,1,.17.27l-4.69,19.18,0,0-13.22,13.68A.23.23,0,0,1,2007.45,1067.73Z" transform="translate(-4.61 -98.53)"/>
          <path class="cls-24" d="M2020.67,1054.05a.22.22,0,0,1-.05-.43l20.87-4.81a.23.23,0,0,1,.27.16.24.24,0,0,1-.17.27l-20.87,4.8Z" transform="translate(-4.61 -98.53)"/>
          <path class="cls-24" d="M2002.65,1051.6a.23.23,0,0,1-.18-.09.21.21,0,0,1,0-.3l5.9-4.36,1.7-8.33a.22.22,0,1,1,.43.08l-1.73,8.5-.07.05-6,4.41A.2.2,0,0,1,2002.65,1051.6Z" transform="translate(-4.61 -98.53)"/>
          <path class="cls-24" d="M2006,1052.8a.23.23,0,0,1-.17-.08.22.22,0,0,1,0-.31l5.35-4.2,1.68-6.92a.23.23,0,0,1,.26-.17.24.24,0,0,1,.17.27l-1.71,7.07-.06,0-5.41,4.24A.19.19,0,0,1,2006,1052.8Z" transform="translate(-4.61 -98.53)"/>
          <path class="cls-24" d="M2009.69,1053.72a.21.21,0,0,1-.18-.09.22.22,0,0,1,0-.31l4.83-3.43,1.11-4.81a.22.22,0,0,1,.26-.17.23.23,0,0,1,.17.26l-1.15,5-5,3.53A.22.22,0,0,1,2009.69,1053.72Z" transform="translate(-4.61 -98.53)"/>
          <path class="cls-24" d="M2024.49,1038.16l-.08-.07a36.13,36.13,0,0,0-3.64-2.94.22.22,0,0,1-.14-.4c.15-.11.35-.25,4,2.94l6.58-1.09a.22.22,0,1,1,.07.43Z" transform="translate(-4.61 -98.53)"/>
          <path class="cls-24" d="M2023.71,1041.2l-4-3.35a.22.22,0,0,1,.29-.33l3.8,3.21,5.7-.83a.21.21,0,0,1,.25.18.21.21,0,0,1-.18.25Z" transform="translate(-4.61 -98.53)"/>
          <path class="cls-24" d="M2022.71,1045.19l-3.06-2.7a.22.22,0,0,1,.29-.33l2.89,2.55,5.46-1.19a.22.22,0,0,1,.26.17.22.22,0,0,1-.17.26Z" transform="translate(-4.61 -98.53)"/>
          <path class="cls-24" d="M2016.86,1063.53a.24.24,0,0,1-.21-.16l-1.22-4.11-4.42-1a.22.22,0,0,1-.17-.26.24.24,0,0,1,.26-.17l4.68,1,1.29,4.35a.22.22,0,0,1-.14.28Z" transform="translate(-4.61 -98.53)"/>
          <path class="cls-24" d="M2014.31,1067.18a.23.23,0,0,1-.21-.15l-1.41-4.73-5.62-1.82a.22.22,0,0,1-.14-.28.23.23,0,0,1,.28-.14l5.84,1.89,1.47,5a.22.22,0,0,1-.15.28Z" transform="translate(-4.61 -98.53)"/>
          <path class="cls-24" d="M2011.27,1070.55a.24.24,0,0,1-.21-.16l-1.51-5.07-5-1.64a.22.22,0,0,1,.14-.42l5.17,1.72,1.57,5.28a.22.22,0,0,1-.14.28Z" transform="translate(-4.61 -98.53)"/>
          <path class="cls-24" d="M2042.29,1057.36a.24.24,0,0,1-.16-.07l-5.84-6.74,2.24-5.43a.23.23,0,0,1,.29-.12.22.22,0,0,1,.12.29l-2.14,5.18,5.66,6.53a.22.22,0,0,1,0,.31A.3.3,0,0,1,2042.29,1057.36Z" transform="translate(-4.61 -98.53)"/>
          <path class="cls-24" d="M2035.36,1055.3a.23.23,0,0,1-.19-.1l-2.58-4.15,1.51-4a.24.24,0,0,1,.29-.13.22.22,0,0,1,.12.29l-1.43,3.79,2.46,4a.21.21,0,0,1-.07.3A.2.2,0,0,1,2035.36,1055.3Z" transform="translate(-4.61 -98.53)"/>
          <path class="cls-24" d="M2031.41,1055.33a.22.22,0,0,1-.15-.06l-2.7-2.66,0-.12c1.2-3.75,1.33-3.87,1.38-3.92a.22.22,0,0,1,.31,0,.22.22,0,0,1,0,.29c-.13.23-.81,2.28-1.24,3.62l2.51,2.46a.22.22,0,0,1,0,.32A.23.23,0,0,1,2031.41,1055.33Z" transform="translate(-4.61 -98.53)"/>
          <path class="cls-24" d="M2027.39,1055.83a.22.22,0,0,1-.18-.1l-1.56-2.32.91-2.78a.21.21,0,0,1,.27-.14.22.22,0,0,1,.14.28l-.84,2.57,1.44,2.15a.21.21,0,0,1-.06.3A.25.25,0,0,1,2027.39,1055.83Z" transform="translate(-4.61 -98.53)"/>
          <path class="cls-24" d="M2026.38,1066.75h-.07a.23.23,0,0,1-.13-.29l1.91-5.31,4.14-1.23a.21.21,0,0,1,.27.15.22.22,0,0,1-.15.27l-3.92,1.17-1.84,5.11A.22.22,0,0,1,2026.38,1066.75Z" transform="translate(-4.61 -98.53)"/>
          <path class="cls-24" d="M2029.26,1069.32h-.07a.22.22,0,0,1-.14-.28l1.86-5.48.11,0,5.4-1.61a.22.22,0,1,1,.13.42l-5.3,1.58-1.78,5.26A.24.24,0,0,1,2029.26,1069.32Z" transform="translate(-4.61 -98.53)"/>
          <path class="cls-24" d="M2031.63,1071.69l-.09,0a.22.22,0,0,1-.11-.29l2.28-5.23,4.91-1.82a.21.21,0,0,1,.28.13.21.21,0,0,1-.13.28l-4.73,1.75-2.21,5.06A.22.22,0,0,1,2031.63,1071.69Z" transform="translate(-4.61 -98.53)"/>
        </g>
      </g>
    </g>
    <g id="Baulbaul_5" data-name="Baulbaul 5">
      <g>
        <path class="cls-4" d="M1845.25,914A11.27,11.27,0,1,1,1834,902.74,11.27,11.27,0,0,1,1845.25,914Z" transform="translate(-4.61 -98.53)"/>
        <path class="cls-1" d="M1846.84,881.76a11.27,11.27,0,1,1-11.26-11.27A11.26,11.26,0,0,1,1846.84,881.76Z" transform="translate(-4.61 -98.53)"/>
        <polygon class="cls-4" points="1815.44 842.75 1815.44 849.49 1847.78 848.24 1846.07 841.66 1815.44 842.75"/>
        <polygon class="cls-4" points="1815.44 851.15 1815.44 857.89 1847.78 856.63 1846.07 850.06 1815.44 851.15"/>
        <polygon class="cls-4" points="1815.44 859.44 1815.44 866.18 1847.78 864.92 1846.07 858.35 1815.44 859.44"/>
        <path class="cls-1" d="M1854.53,979.53l5.46-3.26s-20.54-2.17-31.64-2.92l-11.14-1.27,3.66,4-5.53,3.31s23.21,2.45,33.86,3.07l8.94,1Z" transform="translate(-4.61 -98.53)"/>
        <g>
          <path class="cls-1" d="M1836,1117.56s-24.24-25.34-27.76-42.17-8.26-43.86,3.08-64.2,19.38-24,23.27-24h8.13s17.21,10.89,22.13,35.66,4.91,53.34-17.78,81.7Z" transform="translate(-4.61 -98.53)"/>
          <g class="cls-29">
            <g class="cls-13">
              <path class="cls-1" d="M1812.27,1029.07c0,3.09-2.1,5.6-4.68,5.6s-4.68-2.51-4.68-5.6,2.09-5.6,4.68-5.6S1812.27,1026,1812.27,1029.07Z" transform="translate(-4.61 -98.53)"/>
              <path class="cls-1" d="M1812.27,1044.48c0,3.09-2.1,5.6-4.68,5.6s-4.68-2.51-4.68-5.6,2.09-5.6,4.68-5.6S1812.27,1041.39,1812.27,1044.48Z" transform="translate(-4.61 -98.53)"/>
              <path class="cls-1" d="M1812.27,1060.43c0,3.09-2.1,5.6-4.68,5.6s-4.68-2.51-4.68-5.6,2.09-5.6,4.68-5.6S1812.27,1057.34,1812.27,1060.43Z" transform="translate(-4.61 -98.53)"/>
              <path class="cls-1" d="M1808.2,1029.71s-2.24,17.17-.61,31.43" transform="translate(-4.61 -98.53)"/>
              <path class="cls-1" d="M1821.81,1029.71a5,5,0,1,1-5-5A5,5,0,0,1,1821.81,1029.71Z" transform="translate(-4.61 -98.53)"/>
              <path class="cls-1" d="M1821,1045.42a4.66,4.66,0,1,1-4.66-4.66A4.66,4.66,0,0,1,1821,1045.42Z" transform="translate(-4.61 -98.53)"/>
              <path class="cls-1" d="M1821.05,1060a4.71,4.71,0,1,1-4.71-4.71A4.71,4.71,0,0,1,1821.05,1060Z" transform="translate(-4.61 -98.53)"/>
              <path class="cls-1" d="M1832.25,1030.47a5.22,5.22,0,1,1-5.22-5.22A5.22,5.22,0,0,1,1832.25,1030.47Z" transform="translate(-4.61 -98.53)"/>
              <path class="cls-1" d="M1832.83,1045.42a4.66,4.66,0,1,1-4.65-4.66A4.66,4.66,0,0,1,1832.83,1045.42Z" transform="translate(-4.61 -98.53)"/>
              <path class="cls-1" d="M1831.74,1060a4.71,4.71,0,1,1-4.71-4.71A4.71,4.71,0,0,1,1831.74,1060Z" transform="translate(-4.61 -98.53)"/>
              <path class="cls-1" d="M1845.19,1030.47a6.11,6.11,0,1,1-6.11-6.11A6.12,6.12,0,0,1,1845.19,1030.47Z" transform="translate(-4.61 -98.53)"/>
              <path class="cls-1" d="M1844.25,1046.8a4.63,4.63,0,1,1-4.62-4.63A4.62,4.62,0,0,1,1844.25,1046.8Z" transform="translate(-4.61 -98.53)"/>
              <path class="cls-1" d="M1846.63,1061.14a5.6,5.6,0,1,1-5.6-5.6A5.6,5.6,0,0,1,1846.63,1061.14Z" transform="translate(-4.61 -98.53)"/>
              <path class="cls-1" d="M1854.77,1031a4.07,4.07,0,1,1-4.07-4.07A4.07,4.07,0,0,1,1854.77,1031Z" transform="translate(-4.61 -98.53)"/>
              <path class="cls-1" d="M1855.21,1045.87a4.52,4.52,0,1,1-4.51-4.52A4.51,4.51,0,0,1,1855.21,1045.87Z" transform="translate(-4.61 -98.53)"/>
              <path class="cls-1" d="M1856.23,1060a4.9,4.9,0,1,1-4.9-4.9A4.9,4.9,0,0,1,1856.23,1060Z" transform="translate(-4.61 -98.53)"/>
              <path class="cls-1" d="M1867.49,1031a5.6,5.6,0,1,1-5.6-5.6A5.6,5.6,0,0,1,1867.49,1031Z" transform="translate(-4.61 -98.53)"/>
              <path class="cls-1" d="M1867.49,1046.8a4.45,4.45,0,1,1-4.45-4.46A4.45,4.45,0,0,1,1867.49,1046.8Z" transform="translate(-4.61 -98.53)"/>
              <circle class="cls-1" cx="1857.29" cy="962.61" r="5.6"/>
              <path class="cls-1" d="M1816.85,1029.71s-.95,25.44,0,30.72" transform="translate(-4.61 -98.53)"/>
              <path class="cls-1" d="M1827,1030.47s.74,20.64,0,29.52" transform="translate(-4.61 -98.53)"/>
              <path class="cls-1" d="M1838.36,1031s2.92,24,2.67,29" transform="translate(-4.61 -98.53)"/>
              <path class="cls-1" d="M1850.7,1031s.8,21.37.63,26.94" transform="translate(-4.61 -98.53)"/>
              <path class="cls-1" d="M1861.89,1029.71s2.25,24.93,1.15,30.28" transform="translate(-4.61 -98.53)"/>
              <path class="cls-1" d="M1805.34,1028.73s38.94,4.06,57.7,3.54" transform="translate(-4.61 -98.53)"/>
              <path class="cls-1" d="M1807,1045.23c.07.06,41.56,2.7,56,1.57" transform="translate(-4.61 -98.53)"/>
              <path class="cls-1" d="M1805.34,1061.14s49.76,1.23,58,1" transform="translate(-4.61 -98.53)"/>
            </g>
          </g>
        </g>
        <rect class="cls-4" x="1829.2" y="372.62" width="2.79" height="399.36"/>
        <g>
          <path class="cls-24" d="M1821.39,1030.74a.48.48,0,0,1-.12-.16.59.59,0,0,1,.29-.79l13.77-6.48,10.23,5.55a.59.59,0,0,1,.24.8.6.6,0,0,1-.81.24l-9.7-5.26-13.23,6.22A.59.59,0,0,1,1821.39,1030.74Z" transform="translate(-4.61 -98.53)"/>
          <path class="cls-24" d="M1822,1041.11a.42.42,0,0,1-.11-.16.58.58,0,0,1,.26-.79l14-6.88.27.14,13.35,7.24a.59.59,0,0,1,.24.8.58.58,0,0,1-.8.24l-13.09-7.09-13.44,6.61A.57.57,0,0,1,1822,1041.11Z" transform="translate(-4.61 -98.53)"/>
          <path class="cls-24" d="M1822,1050.14a.69.69,0,0,1-.13-.2.59.59,0,0,1,.33-.77l14.32-5.61,12.82,5.9a.58.58,0,0,1,.29.78.59.59,0,0,1-.78.3l-12.36-5.7-13.85,5.43A.6.6,0,0,1,1822,1050.14Z" transform="translate(-4.61 -98.53)"/>
          <line class="cls-30" x1="1830.23" y1="897.23" x2="1831.11" y2="958.58"/>
        </g>
        <rect class="cls-1" x="1818.27" y="869.06" width="26.67" height="25.73"/>
      </g>
    </g>
    <g id="Baulbaul_4" data-name="Baulbaul 4">
      <g>
        <path class="cls-4" d="M1501.21,418.39a11.27,11.27,0,1,1-11.27-11.27A11.27,11.27,0,0,1,1501.21,418.39Z" transform="translate(-4.61 -98.53)"/>
        <path class="cls-1" d="M1502.8,386.14a11.27,11.27,0,1,1-11.26-11.27A11.26,11.26,0,0,1,1502.8,386.14Z" transform="translate(-4.61 -98.53)"/>
        <polygon class="cls-4" points="1471.4 347.14 1471.4 353.88 1503.74 352.62 1502.03 346.05 1471.4 347.14"/>
        <polygon class="cls-4" points="1471.4 355.54 1471.4 362.28 1503.74 361.02 1502.03 354.44 1471.4 355.54"/>
        <polygon class="cls-4" points="1471.4 363.82 1471.4 370.56 1503.74 369.3 1502.03 362.73 1471.4 363.82"/>
        <path class="cls-1" d="M1510.49,483.92l5.46-3.27s-20.54-2.17-31.64-2.92l-11.14-1.27,3.66,4-5.53,3.31s23.21,2.45,33.85,3.07l8.95,1Z" transform="translate(-4.61 -98.53)"/>
        <g>
          <path class="cls-1" d="M1492,621.94s-24.24-25.34-27.76-42.17-8.26-43.86,3.08-64.2,19.38-24,23.27-24h8.13s17.21,10.89,22.12,35.67,4.92,53.33-17.77,81.7Z" transform="translate(-4.61 -98.53)"/>
          <g class="cls-31">
            <g class="cls-13">
              <path class="cls-1" d="M1468.23,533.45c0,3.1-2.1,5.6-4.68,5.6s-4.68-2.5-4.68-5.6,2.09-5.59,4.68-5.59S1468.23,530.36,1468.23,533.45Z" transform="translate(-4.61 -98.53)"/>
              <path class="cls-1" d="M1468.23,548.87c0,3.09-2.1,5.59-4.68,5.59s-4.68-2.5-4.68-5.59,2.09-5.6,4.68-5.6S1468.23,545.77,1468.23,548.87Z" transform="translate(-4.61 -98.53)"/>
              <path class="cls-1" d="M1468.23,564.81c0,3.1-2.1,5.6-4.68,5.6s-4.68-2.5-4.68-5.6,2.09-5.59,4.68-5.59S1468.23,561.72,1468.23,564.81Z" transform="translate(-4.61 -98.53)"/>
              <path class="cls-1" d="M1464.16,534.09s-2.24,17.18-.61,31.43" transform="translate(-4.61 -98.53)"/>
              <path class="cls-1" d="M1477.77,534.09a5,5,0,1,1-5-5A5,5,0,0,1,1477.77,534.09Z" transform="translate(-4.61 -98.53)"/>
              <path class="cls-1" d="M1477,549.8a4.66,4.66,0,1,1-4.66-4.65A4.65,4.65,0,0,1,1477,549.8Z" transform="translate(-4.61 -98.53)"/>
              <path class="cls-1" d="M1477,564.37a4.71,4.71,0,1,1-4.71-4.71A4.71,4.71,0,0,1,1477,564.37Z" transform="translate(-4.61 -98.53)"/>
              <path class="cls-1" d="M1488.21,534.85a5.22,5.22,0,1,1-5.22-5.21A5.22,5.22,0,0,1,1488.21,534.85Z" transform="translate(-4.61 -98.53)"/>
              <path class="cls-1" d="M1488.79,549.8a4.66,4.66,0,1,1-4.66-4.65A4.65,4.65,0,0,1,1488.79,549.8Z" transform="translate(-4.61 -98.53)"/>
              <path class="cls-1" d="M1487.7,564.37a4.71,4.71,0,1,1-4.71-4.71A4.71,4.71,0,0,1,1487.7,564.37Z" transform="translate(-4.61 -98.53)"/>
              <path class="cls-1" d="M1501.15,534.85a6.11,6.11,0,1,1-6.11-6.1A6.11,6.11,0,0,1,1501.15,534.85Z" transform="translate(-4.61 -98.53)"/>
              <path class="cls-1" d="M1500.21,551.18a4.63,4.63,0,1,1-4.62-4.62A4.63,4.63,0,0,1,1500.21,551.18Z" transform="translate(-4.61 -98.53)"/>
              <path class="cls-1" d="M1502.59,565.52a5.6,5.6,0,1,1-5.6-5.6A5.6,5.6,0,0,1,1502.59,565.52Z" transform="translate(-4.61 -98.53)"/>
              <path class="cls-1" d="M1510.73,535.36a4.07,4.07,0,1,1-4.07-4.07A4.08,4.08,0,0,1,1510.73,535.36Z" transform="translate(-4.61 -98.53)"/>
              <path class="cls-1" d="M1511.17,550.25a4.52,4.52,0,1,1-4.51-4.52A4.51,4.51,0,0,1,1511.17,550.25Z" transform="translate(-4.61 -98.53)"/>
              <path class="cls-1" d="M1512.19,564.37a4.9,4.9,0,1,1-4.9-4.89A4.9,4.9,0,0,1,1512.19,564.37Z" transform="translate(-4.61 -98.53)"/>
              <path class="cls-1" d="M1523.45,535.36a5.6,5.6,0,1,1-5.6-5.6A5.6,5.6,0,0,1,1523.45,535.36Z" transform="translate(-4.61 -98.53)"/>
              <path class="cls-1" d="M1523.45,551.18a4.45,4.45,0,1,1-4.45-4.45A4.45,4.45,0,0,1,1523.45,551.18Z" transform="translate(-4.61 -98.53)"/>
              <path class="cls-1" d="M1523.45,565.52a5.6,5.6,0,1,1-5.6-5.6A5.6,5.6,0,0,1,1523.45,565.52Z" transform="translate(-4.61 -98.53)"/>
              <path class="cls-1" d="M1472.81,534.09s-1,25.44,0,30.72" transform="translate(-4.61 -98.53)"/>
              <path class="cls-1" d="M1483,534.85s.74,20.64,0,29.52" transform="translate(-4.61 -98.53)"/>
              <path class="cls-1" d="M1494.32,535.36s2.92,24,2.67,29" transform="translate(-4.61 -98.53)"/>
              <path class="cls-1" d="M1506.66,535.36s.8,21.37.63,26.94" transform="translate(-4.61 -98.53)"/>
              <path class="cls-1" d="M1517.85,534.09s2.25,24.93,1.15,30.28" transform="translate(-4.61 -98.53)"/>
              <path class="cls-1" d="M1461.3,533.12s38.94,4.06,57.7,3.53" transform="translate(-4.61 -98.53)"/>
              <path class="cls-1" d="M1463,549.61c.07.06,41.56,2.7,56,1.57" transform="translate(-4.61 -98.53)"/>
              <path class="cls-1" d="M1461.3,565.52s49.76,1.24,58,1.05" transform="translate(-4.61 -98.53)"/>
            </g>
          </g>
        </g>
        <rect class="cls-4" x="1486.05" y="3.8" width="2.56" height="272.55"/>
        <g>
          <path class="cls-24" d="M1477.35,535.13a.66.66,0,0,1-.12-.17.59.59,0,0,1,.29-.79l13.77-6.48,10.23,5.55a.59.59,0,1,1-.57,1l-9.7-5.26L1478,535.24A.59.59,0,0,1,1477.35,535.13Z" transform="translate(-4.61 -98.53)"/>
          <path class="cls-24" d="M1477.92,545.49a.33.33,0,0,1-.11-.15.59.59,0,0,1,.26-.8l14-6.88.27.15,13.35,7.24a.59.59,0,1,1-.56,1L1492,539l-13.44,6.62A.59.59,0,0,1,1477.92,545.49Z" transform="translate(-4.61 -98.53)"/>
          <path class="cls-24" d="M1477.92,554.52a.58.58,0,0,1-.13-.2.6.6,0,0,1,.33-.77l14.32-5.61,12.82,5.9a.6.6,0,0,1,.29.79.58.58,0,0,1-.78.29l-12.36-5.69-13.85,5.43A.6.6,0,0,1,1477.92,554.52Z" transform="translate(-4.61 -98.53)"/>
          <line class="cls-32" x1="1486.19" y1="401.61" x2="1487.07" y2="462.96"/>
        </g>
        <rect class="cls-1" x="1474.23" y="373.44" width="26.66" height="25.74"/>
      </g>
    </g>
    <g id="Baulbaul_3" data-name="Baulbaul 3">
      <g>
        <rect class="cls-10" x="1304.88" y="6.71" width="1.76" height="576.72"/>
        <polygon class="cls-33" points="1296.14 525.48 1296.14 528.23 1316.49 527.16 1315.42 524.55 1296.14 525.48"/>
        <polygon class="cls-33" points="1297.39 532.39 1296.08 537.98 1316.14 541.59 1316.38 535.9 1297.39 532.39"/>
        <path class="cls-10" d="M1310.36,575.73s-15.26-16-17.48-26.54-5.2-27.61,1.95-40.41,12.19-15.14,14.64-15.14h5.12s10.83,6.86,13.93,22.45,3.09,33.58-11.19,51.43Z" transform="translate(-4.61 -98.53)"/>
        <g class="cls-34">
          <g class="cls-13">
            <path class="cls-24" d="M1288.86,515.45c0,2.83-1.92,5.12-4.29,5.12s-4.28-2.29-4.28-5.12,1.92-5.12,4.28-5.12S1288.86,512.62,1288.86,515.45Z" transform="translate(-4.61 -98.53)"/>
            <path class="cls-24" d="M1288.86,529.56c0,2.82-1.92,5.12-4.29,5.12s-4.28-2.3-4.28-5.12,1.92-5.13,4.28-5.13S1288.86,526.72,1288.86,529.56Z" transform="translate(-4.61 -98.53)"/>
            <path class="cls-24" d="M1288.86,544.15c0,2.83-1.92,5.13-4.29,5.13s-4.28-2.3-4.28-5.13,1.92-5.12,4.28-5.12S1288.86,541.32,1288.86,544.15Z" transform="translate(-4.61 -98.53)"/>
            <path class="cls-24" d="M1285.13,516s-2.05,15.72-.56,28.77" transform="translate(-4.61 -98.53)"/>
            <path class="cls-24" d="M1297.59,516a4.54,4.54,0,1,1-4.54-4.54A4.54,4.54,0,0,1,1297.59,516Z" transform="translate(-4.61 -98.53)"/>
            <circle class="cls-24" cx="1287.98" cy="431.89" r="4.26"/>
            <path class="cls-24" d="M1296.89,543.75a4.31,4.31,0,1,1-4.31-4.31A4.31,4.31,0,0,1,1296.89,543.75Z" transform="translate(-4.61 -98.53)"/>
            <path class="cls-24" d="M1307.14,516.73a4.78,4.78,0,1,1-4.77-4.77A4.78,4.78,0,0,1,1307.14,516.73Z" transform="translate(-4.61 -98.53)"/>
            <path class="cls-24" d="M1307.68,530.42a4.27,4.27,0,1,1-4.27-4.27A4.27,4.27,0,0,1,1307.68,530.42Z" transform="translate(-4.61 -98.53)"/>
            <path class="cls-24" d="M1306.67,543.75a4.31,4.31,0,1,1-4.3-4.31A4.3,4.3,0,0,1,1306.67,543.75Z" transform="translate(-4.61 -98.53)"/>
            <path class="cls-24" d="M1319,516.73a5.59,5.59,0,1,1-5.59-5.59A5.59,5.59,0,0,1,1319,516.73Z" transform="translate(-4.61 -98.53)"/>
            <path class="cls-24" d="M1318.13,531.67a4.24,4.24,0,1,1-4.23-4.23A4.24,4.24,0,0,1,1318.13,531.67Z" transform="translate(-4.61 -98.53)"/>
            <path class="cls-24" d="M1320.3,544.8a5.13,5.13,0,1,1-5.12-5.13A5.12,5.12,0,0,1,1320.3,544.8Z" transform="translate(-4.61 -98.53)"/>
            <path class="cls-24" d="M1327.75,517.2a3.73,3.73,0,1,1-3.72-3.73A3.71,3.71,0,0,1,1327.75,517.2Z" transform="translate(-4.61 -98.53)"/>
            <path class="cls-24" d="M1328.16,530.82a4.14,4.14,0,1,1-4.13-4.13A4.13,4.13,0,0,1,1328.16,530.82Z" transform="translate(-4.61 -98.53)"/>
            <path class="cls-24" d="M1329.09,543.75a4.48,4.48,0,1,1-4.48-4.48A4.47,4.47,0,0,1,1329.09,543.75Z" transform="translate(-4.61 -98.53)"/>
            <circle class="cls-24" cx="1329.67" cy="418.67" r="5.12"/>
            <path class="cls-24" d="M1339.4,531.67a4.08,4.08,0,1,1-4.08-4.07A4.08,4.08,0,0,1,1339.4,531.67Z" transform="translate(-4.61 -98.53)"/>
            <path class="cls-24" d="M1339.4,544.8a5.13,5.13,0,1,1-5.12-5.13A5.12,5.12,0,0,1,1339.4,544.8Z" transform="translate(-4.61 -98.53)"/>
            <path class="cls-24" d="M1293.05,516s-.87,23.29,0,28.12" transform="translate(-4.61 -98.53)"/>
            <path class="cls-24" d="M1302.37,516.73s.67,18.89,0,27" transform="translate(-4.61 -98.53)"/>
            <path class="cls-24" d="M1312.73,517.2s2.68,22,2.45,26.55" transform="translate(-4.61 -98.53)"/>
            <path class="cls-24" d="M1324,517.2s.73,19.55.58,24.65" transform="translate(-4.61 -98.53)"/>
            <path class="cls-24" d="M1334.28,516s2,22.82,1,27.72" transform="translate(-4.61 -98.53)"/>
            <path class="cls-24" d="M1282.52,515.14s35.63,3.72,52.8,3.23" transform="translate(-4.61 -98.53)"/>
            <path class="cls-24" d="M1284,530.24s38,2.47,51.29,1.43" transform="translate(-4.61 -98.53)"/>
            <path class="cls-24" d="M1282.52,544.8s45.54,1.13,53.08,1" transform="translate(-4.61 -98.53)"/>
          </g>
        </g>
      </g>
    </g>
    <g id="Baulbaul_2" data-name="Baulbaul 2">
      <g>
        <rect class="cls-4" x="716.54" y="79.07" width="2.72" height="205.14"/>
        <path class="cls-4" d="M714.21,396.42V384.16s1.53-1.42,9.65-1.42,9.18,0,9.36,2.13,0,11.55,0,11.55Z" transform="translate(-4.61 -98.53)"/>
        <path class="cls-1" d="M758.34,434.34c1.77-14.83-4.77-25.82-7.94-30.66-5.81-8.89-15.89-12.66-29.26-12.43-10.08.18-20.79,10.3-20.79,10.3-15.7,16.57-5.84,56,6.18,76.2,8.83,14.84,18.55,20.36,21.2,20.36s13-10.93,16.86-18.07S755.72,456.28,758.34,434.34Z" transform="translate(-4.61 -98.53)"/>
        <polygon class="cls-10" points="703.87 258.68 703.87 265.42 736.2 264.16 734.5 257.59 703.87 258.68"/>
        <polygon class="cls-10" points="703.87 267.07 703.87 273.81 736.2 272.55 734.5 265.98 703.87 267.07"/>
        <polygon class="cls-10" points="703.87 275.36 703.87 282.1 736.2 280.84 734.5 274.27 703.87 275.36"/>
        <g>
          <path class="cls-24" d="M711.2,424.57a.66.66,0,0,1-.12-.17.6.6,0,0,1,.28-.79l13.78-6.48,10.23,5.55a.59.59,0,0,1-.57,1l-9.7-5.26-13.23,6.22A.59.59,0,0,1,711.2,424.57Z" transform="translate(-4.61 -98.53)"/>
          <path class="cls-24" d="M711.76,434.93a.5.5,0,0,1-.11-.16.6.6,0,0,1,.27-.79l14-6.88.27.15,13.35,7.24a.59.59,0,1,1-.56,1l-13.09-7.09-13.44,6.62A.61.61,0,0,1,711.76,434.93Z" transform="translate(-4.61 -98.53)"/>
          <path class="cls-24" d="M711.77,444a.46.46,0,0,1-.13-.2A.59.59,0,0,1,712,443l14.32-5.61,12.82,5.9a.6.6,0,0,1,.29.79.58.58,0,0,1-.78.29l-12.36-5.69-13.85,5.43A.6.6,0,0,1,711.77,444Z" transform="translate(-4.61 -98.53)"/>
          <line class="cls-35" x1="720.04" y1="291.05" x2="720.92" y2="352.4"/>
        </g>
      </g>
    </g>
    <g id="Baulbaul_1" data-name="Baulbaul 1">
      <g>
        <line class="cls-15" x1="977.4" y1="592.1" x2="977.4" y2="624.29"/>
        <path class="cls-1" d="M952.36,679.17S930.23,656,927,640.67s-7.54-40,2.82-58.62,17.7-22,21.25-22h7.42S974.2,570,978.7,592.66s4.49,48.7-16.24,74.6Z" transform="translate(-4.61 -98.53)"/>
        <g class="cls-36">
          <g>
            <path class="cls-24" d="M924,596.7c0,4.14-2.81,7.49-6.27,7.49s-6.27-3.35-6.27-7.49,2.81-7.5,6.27-7.5S924,592.55,924,596.7Z" transform="translate(-4.61 -98.53)"/>
            <path class="cls-24" d="M924,617.34c0,4.14-2.81,7.49-6.27,7.49s-6.27-3.35-6.27-7.49,2.81-7.5,6.27-7.5S924,613.2,924,617.34Z" transform="translate(-4.61 -98.53)"/>
            <path class="cls-24" d="M924,638.7c0,4.14-2.81,7.5-6.27,7.5s-6.27-3.36-6.27-7.5,2.81-7.5,6.27-7.5S924,634.56,924,638.7Z" transform="translate(-4.61 -98.53)"/>
            <path class="cls-24" d="M918.56,597.55s-3,23-.82,42.1" transform="translate(-4.61 -98.53)"/>
            <path class="cls-24" d="M936.8,597.55a6.65,6.65,0,1,1-6.65-6.65A6.64,6.64,0,0,1,936.8,597.55Z" transform="translate(-4.61 -98.53)"/>
            <path class="cls-24" d="M935.71,618.6a6.24,6.24,0,1,1-6.24-6.25A6.24,6.24,0,0,1,935.71,618.6Z" transform="translate(-4.61 -98.53)"/>
            <path class="cls-24" d="M935.77,638.11a6.31,6.31,0,1,1-6.3-6.3A6.31,6.31,0,0,1,935.77,638.11Z" transform="translate(-4.61 -98.53)"/>
            <circle class="cls-24" cx="939.18" cy="500.05" r="6.99"/>
            <path class="cls-24" d="M951.56,618.6a6.24,6.24,0,1,1-6.24-6.25A6.24,6.24,0,0,1,951.56,618.6Z" transform="translate(-4.61 -98.53)"/>
            <path class="cls-24" d="M950.09,638.11a6.31,6.31,0,1,1-6.31-6.3A6.31,6.31,0,0,1,950.09,638.11Z" transform="translate(-4.61 -98.53)"/>
            <path class="cls-24" d="M968.11,598.57a8.18,8.18,0,1,1-8.18-8.18A8.18,8.18,0,0,1,968.11,598.57Z" transform="translate(-4.61 -98.53)"/>
            <circle class="cls-24" cx="956.05" cy="521.91" r="6.19"/>
            <path class="cls-24" d="M970,639.65a7.5,7.5,0,1,1-7.5-7.5A7.49,7.49,0,0,1,970,639.65Z" transform="translate(-4.61 -98.53)"/>
            <path class="cls-24" d="M980.94,599.25a5.46,5.46,0,1,1-5.45-5.45A5.45,5.45,0,0,1,980.94,599.25Z" transform="translate(-4.61 -98.53)"/>
            <path class="cls-24" d="M981.54,619.19a6,6,0,1,1-6-6.05A6.05,6.05,0,0,1,981.54,619.19Z" transform="translate(-4.61 -98.53)"/>
            <path class="cls-24" d="M982.9,638.11a6.56,6.56,0,1,1-6.56-6.56A6.56,6.56,0,0,1,982.9,638.11Z" transform="translate(-4.61 -98.53)"/>
            <path class="cls-24" d="M998,599.25a7.5,7.5,0,1,1-7.49-7.5A7.49,7.49,0,0,1,998,599.25Z" transform="translate(-4.61 -98.53)"/>
            <path class="cls-24" d="M998,620.44a6,6,0,1,1-6-6A6,6,0,0,1,998,620.44Z" transform="translate(-4.61 -98.53)"/>
            <path class="cls-24" d="M998,639.65a7.5,7.5,0,1,1-7.49-7.5A7.49,7.49,0,0,1,998,639.65Z" transform="translate(-4.61 -98.53)"/>
            <path class="cls-24" d="M930.15,597.55s-1.27,34.08,0,41.15" transform="translate(-4.61 -98.53)"/>
            <path class="cls-24" d="M943.78,598.57s1,27.65,0,39.54" transform="translate(-4.61 -98.53)"/>
            <path class="cls-24" d="M959,599.25s3.91,32.19,3.57,38.86" transform="translate(-4.61 -98.53)"/>
            <path class="cls-24" d="M975.49,599.25s1.07,28.63.85,36.08" transform="translate(-4.61 -98.53)"/>
            <path class="cls-24" d="M990.49,597.55s3,33.39,1.53,40.56" transform="translate(-4.61 -98.53)"/>
            <path class="cls-24" d="M914.73,596.24S966.89,601.68,992,601" transform="translate(-4.61 -98.53)"/>
            <path class="cls-24" d="M917,618.34c.08.08,55.66,3.61,75.07,2.1" transform="translate(-4.61 -98.53)"/>
            <path class="cls-24" d="M914.73,639.65s66.65,1.65,77.7,1.41" transform="translate(-4.61 -98.53)"/>
          </g>
        </g>
        <path class="cls-1" d="M964.88,491.11a10.74,10.74,0,1,1-10.74-10.75A10.74,10.74,0,0,1,964.88,491.11Z" transform="translate(-4.61 -98.53)"/>
        <rect class="cls-4" x="946.98" width="2.55" height="379.09"/>
        <polygon class="cls-10" points="931.92 407.51 931.92 414.25 964.25 412.99 962.55 406.42 931.92 407.51"/>
        <polygon class="cls-10" points="931.92 415.91 931.92 422.65 964.25 421.39 962.55 414.81 931.92 415.91"/>
        <polygon class="cls-10" points="931.92 424.2 931.92 430.93 964.25 429.67 962.55 423.1 931.92 424.2"/>
        <path class="cls-37" d="M971,544.29l5.46-3.27s-20.54-2.17-31.64-2.91l-11.14-1.27,3.66,4-5.53,3.31s23.21,2.45,33.85,3.07l9,1Z" transform="translate(-4.61 -98.53)"/>
        <rect class="cls-37" x="934.75" y="433.81" width="26.66" height="25.73"/>
      </g>
    </g>
  </g>
</svg>
