 <svg xmlns="http://www.w3.org/2000/svg" viewBox="0 0 286.98 252.27" id="Frost" onClick="handleClick()" class="frostUnclicked"><defs><style>        

  .fls-1 { 
    opacity:0.95;
  }
  
  .fls-2 {
    fill:#fff;
  }
</style></defs><g id="Layer_2" data-name="Layer 2"><g id="Layer_1-2" data-name="Layer 1"><g class="fls-1"><path class="fls-2" d="M152.75,2.89c4.57.21,9.14.37,13.7.32A77.3,77.3,0,0,1,211,16.46c27.51,18.88,46.87,38.9,58.6,58.48,4.74,7.92,9.14,17.5,10.85,26.59,1.77,9.34,5,17.88,3.27,27.63-.93,5.15-2.9,10.31-2,15.47.55,3.15,2.15,6,2.92,9.13,1.66,6.68-.62,13.64-2.86,20.15-6.67,19.27-13.41,38.72-24.07,56.1-4.61,7.53-9.42,17.94-18.77,19.91-4.57,1-9.3.48-14,.08-50.17-4.33-100.75,1.28-151-2-11.18-.73-29.49-.09-37.08-8.88s-17.17-15.37-20.35-27.51c-1-3.82-1.35-8-3.58-11.21,1.67-.52,2.07-2.84,1.34-4.43s-2.18-2.7-3.33-4c-2.32-2.68-3.38-6.2-4.2-9.65-4-16.93-3.88-34.57-3-52S6.5,95.4,14.42,80.07C23,63.45,38,51.22,52.57,39.48c18.54-14.93,38-30.31,61.28-35.32C126.7,1.39,139.75,2.3,152.75,2.89Z"/><path class="fls-2" d="M151.84.41c1.29.1.84-.34,1-.41C150.71,0,151.88.52,151.84.41Z"/><path class="fls-2" d="M130.27.84l.38-.19c-1.06.18-2.12.34-3.17.55C128.41,1.05,129.34,1,130.27.84Z"/><path class="fls-2" d="M110.14,3.53a6.92,6.92,0,0,0,2-.2l2.76-.66a35.82,35.82,0,0,1,6-1.06l.61.1L123.16,1c-2.2.26-4.7.7-7,1.19S111.67,3.26,110.14,3.53Z"/><path class="fls-2" d="M99.25,5.49c.37,0-.16.29-.21.32a22.67,22.67,0,0,1,2.65-1.14l-.46.09C100.81,4.92,100.22,5.1,99.25,5.49Z"/><path class="fls-2" d="M101.23,4.76c2-.76-1.43.26,0,0Z"/><path class="fls-2" d="M92.08,8.86l2.48-1.43c-.61.1-2.93,1.15-2.13.64C89.85,9.48,90.48,9.38,92.08,8.86Z"/><path class="fls-2" d="M89.92,10.56l1.25-.77A2.83,2.83,0,0,0,89.92,10.56Z"/><path class="fls-2" d="M93.89,8.23c-.91.52-1.84,1-2.72,1.56.43-.08.55.08,1.25-.71C92.28,9.37,92.75,8.93,93.89,8.23Z"/><path class="fls-2" d="M95.54,7.58c1.52-.51,3.47-1.18.94.13C101.45,5.55,100.53,5.35,95.54,7.58Z"/><path class="fls-2" d="M109.32,4.49l2.09-.3,1.71-.66C112.27,3.86,109.14,4.31,109.32,4.49Z"/><path class="fls-2" d="M76.59,17.39c-.07.23,1-.18,1.3-.13L79.55,16A14.27,14.27,0,0,1,76.59,17.39Z"/><path class="fls-2" d="M77.89,17.26c-.83.64-1.66,1.27-2.46,1.94C77.75,17.67,78.14,17.32,77.89,17.26Z"/><path class="fls-2" d="M89.84,11.49,92,10.07c.73-.46,1.47-.89,2.21-1.35-1.8,1-3.51,2.13-5.23,3.23Z"/><polygon class="fls-2" points="66.84 24.22 68.04 22.89 65.84 25.18 66.84 24.22"/><path class="fls-2" d="M60.62,29c.84-1-1.7.71-.73-.28a41.79,41.79,0,0,0-4.06,3.87A31.13,31.13,0,0,1,60.62,29Z"/><path class="fls-2" d="M53.89,34.57c.63-.6,1.26-1.25,1.94-2A23.93,23.93,0,0,0,53.89,34.57Z"/><path class="fls-2" d="M71.05,22.15a6.75,6.75,0,0,0-2.25,1.07l1.25-.36Z"/><path class="fls-2" d="M70.09,22.84l0,0c-1.09.76-1.83,1.3-2.15,1.53C68.18,24.19,68.82,23.71,70.09,22.84Z"/><path class="fls-2" d="M71.3,22l-.25.17A.34.34,0,0,0,71.3,22Z"/><path class="fls-2" d="M82.55,15.16c-1.46,1.14-4.51,3.4-1.22,1.75C82.3,16,80.38,16.9,82.55,15.16Z"/><path class="fls-2" d="M72.84,21.53l2.77-1.78c-.12-.05-.7.15,0-.46Z"/><polygon class="fls-2" points="71.61 22.58 72.84 21.53 71.82 22.21 71.61 22.58"/><path class="fls-2" d="M58.53,31.39A45.21,45.21,0,0,1,55,34.5c1.52-1.1,3-2.27,4.51-3.41C59.62,30.83,60.11,30.14,58.53,31.39Z"/><path class="fls-2" d="M64.12,27.21l-.24.21C64.06,27.33,64.19,27.25,64.12,27.21Z"/><path class="fls-2" d="M41.65,45.35l.26-.12v-.09Z"/><path class="fls-2" d="M59.79,31a13.2,13.2,0,0,0,2.32-2c-.82.68-1.67,1.39-2.61,2.13C59.44,31.21,59.45,31.26,59.79,31Z"/><path class="fls-2" d="M50.28,37.73c.63-.39,1.32-.85,2-1.35A10.31,10.31,0,0,0,50.28,37.73Z"/><path class="fls-2" d="M63.43,27.62l.16-.15C63.17,27.68,63.24,27.68,63.43,27.62Z"/><path class="fls-2" d="M63.43,27.62c-.54.49-.93.92-1.32,1.34.66-.55,1.26-1.07,1.77-1.54A2.84,2.84,0,0,1,63.43,27.62Z"/><path class="fls-2" d="M39.47,50.82c-.07-.46,2.48-3.16,5.2-4.86,2.23-2.22-.18-1.94-2.76-.73,0,.2.13.31-2.18,2.6,1-.6,5.82-4.24,4-2.22-3.14,2.91-2.77,2.16-4.48,3.36,1.64-.8-3.62,4.14-2.43,4.07l2.63-2.68C39.53,50.4,38.62,51.43,39.47,50.82Z"/><path class="fls-2" d="M46.7,41.33l1-.87A44,44,0,0,1,43.79,43c-1.59,1.56-1.84,2-1.88,2.18,1.69-1.4,3.4-2.78,5.1-4.14Z"/><path class="fls-2" d="M52.34,36.71c-.54,1-2.9,3.13-1.09,2.26,3-2.46,1.9-2,3.6-3.59-4.84,4,1.26-1.32-2.44,1.34.92-.83,1.77-1.55,2.58-2.22-.92.67-1.81,1.3-2.66,1.88l.13-.07h0c.24-.12.33-.15.08,0l-.1.09a.72.72,0,0,1-.12.31c-1.48,1.07-.29.09.12-.31,0,0,0-.07,0-.1h0L47.7,40.46C48.77,39.66,50.06,38.6,52.34,36.71Z"/><path class="fls-2" d="M79,19.51c-.18.07-.19,0-.22,0C78.46,19.8,78.35,19.91,79,19.51Z"/><path class="fls-2" d="M76.69,20.72a7.46,7.46,0,0,1,1.84-1.45c1.16-.59.11.18.24.26.69-.58,2.47-2,0-.61l-.34.29c-2.22,1.25-5.2,2.7-4.87,2.39A11.38,11.38,0,0,0,76.69,20.72Z"/><path class="fls-2" d="M64.27,28.66c-1.36,1.11-2.69,2.24-4,3.38l2.34-1.35-.25-.1C64.76,28.84,64.08,29,64.27,28.66Z"/><polygon class="fls-2" points="41.05 45.58 41.29 44.78 39.38 47.24 41.05 45.58"/><polygon class="fls-2" points="35.89 50.13 35.81 49.66 34.61 51.05 35.89 50.13"/><path class="fls-2" d="M211.12,246.68l1.55,0C211.93,246.65,211.46,246.66,211.12,246.68Z"/><path class="fls-2" d="M199.93,246.19l-.28.19C200.17,246.29,200.39,246.21,199.93,246.19Z"/><path class="fls-2" d="M12.78,206.14c.15,2.07.08,4.74.48,4.37l.27-.78A36.14,36.14,0,0,1,12.78,206.14Z"/><path class="fls-2" d="M108.54,249l-.66-.14-1.51.41Z"/><path class="fls-2" d="M110.12,247.18l2.95.28C112.41,247.37,111.46,247.28,110.12,247.18Z"/><path class="fls-2" d="M257.62,224.65l.48-1.75C256.76,225.3,257.54,224.35,257.62,224.65Z"/><path class="fls-2" d="M3,111.49a48.44,48.44,0,0,0-.81,4.83C2.7,114,3.31,112.15,3,111.49Z"/><path class="fls-2" d="M206.51,251.05c.94,0,1.35-.09,1.32-.19C206.87,250.88,206.32,250.94,206.51,251.05Z"/><path class="fls-2" d="M1.73,122l.18-1c0-1.43.1-2.87.31-4.61A19.94,19.94,0,0,0,1.73,122Z"/><path class="fls-2" d="M227.15,31.58l-.35-.35C226.72,31.24,226.89,31.38,227.15,31.58Z"/><path class="fls-2" d="M171.54,1.42c.65,0,1.7.08,2.7.15A20.58,20.58,0,0,0,171.54,1.42Z"/><path class="fls-2" d="M16.92,70.67c.82-1.25.1-.22,0,0Z"/><path class="fls-2" d="M22.6,66c-.16.27-.26.5-.2.59A1.18,1.18,0,0,1,22.6,66Z"/><path class="fls-2" d="M3.63,136.52v.12C3.72,136.21,3.7,136.29,3.63,136.52Z"/><path class="fls-2" d="M18.38,69a15.57,15.57,0,0,0-1.21,1.48Z"/><path class="fls-2" d="M18,69.07l.81-1C18.9,67.86,18.76,68,18,69.07Z"/><path class="fls-2" d="M15.77,72.4c.48-.71.94-1.35,1.4-2-.19.23-.28.31-.25.24Z"/><path class="fls-2" d="M282.45,129l.09-.29C282.56,127.29,282.51,127.89,282.45,129Z"/><path class="fls-2" d="M36.19,235.28l-.13-.11.13.17Z"/><path class="fls-2" d="M39.83,238.7a7.53,7.53,0,0,1-2.06-1.53c-.57-.59-1-1.18-1.58-1.83.1.71.19,1.41.26,2.13.58.24,1.17.52,1.75.74Z"/><path class="fls-2" d="M237.24,247.69a28.65,28.65,0,0,1-3.33-.11,37.93,37.93,0,0,0,4.35-1c.34-.15.48-.23.38-.27a7.26,7.26,0,0,0-1.17,0c-.05.35-.82.67-2,.86a24.18,24.18,0,0,1-4.5.18c-3.34-.14-6.95-.48-7.26.21l-2.38-.46c.69.06.8,0,1.49.05-4.65-1-3.56.67-9.57.14-2.1-.22-3.56-.49-2.11-.58l-4.71.09c-1.36-.07-1-.3.34-.22l-7.16-.14.06,0c-1,.17-3.35.42-4.48.56-1.81-.23.92-.13.46-.31l-4,.26c-1.6-.38,1.68-.67,4.42-.57-3.67-1.4-3.29.25-11.26-.61l3.74-.14c-2.4-.81-5.32-.53-9.55-1,1,.25,8.46,1.25,4.16,1.56a25.22,25.22,0,0,0-5.12.1c0-.48-2.28-.35-5.11-.31l.19-.64c-3.06.2-2.82.53-4.61.82-3.41,0-4.12-.5-4.93-.91-5.46,0,3.78.75-2.68,1a93,93,0,0,0-13.13.61c-3.17-.16.55-.4-.59-.56l-2.8.56c-.69,0-.47-.16-.36-.24-2.36.24-.18.64-3.9.88-1,.72-7.66-.89-12.25,0-1.13-.17.55-.4.2-.64-6.31.59-5.41.46-10.59,1.19l-4.42-.41c3.25.46-.89,1.08-4.53,1.51,1.15.24,2.13.44,2.8.55l-5.81.3c-.7-.1-.12-.32.84-.58l-1.07.14c-2.07-.24-1-.61.5-1l2.08.41c1.44-.38,2.78-.8,2.48-1.18a15.72,15.72,0,0,1-1.9.16c.38-.1.61-.19.44-.26a7.19,7.19,0,0,0-1.75.23l-1.31-.72-.32.28c-2.53-.15-5-.35-7.56-.55-2.72.31-5.26.72-8.2,1a82.27,82.27,0,0,1-10.6.41c2.16-.4.5-.82.65-1.44,2.31.82,6.66,0,11.1.32-2.32-.15-1.8-.42-1.2-.51-2.65.09-5.31.25-8,.28.2-.49-1.66-.47-3.72-.79.75.54-.73.63-2.82.6s-4.81-.2-6.42-.1c-.18-.34.59-.68,4.58-.38-4.37-1-5.72.93-10,.05a5.09,5.09,0,0,0,1.87,0c-2.27.22-7.69-.47-6.38-.67l.94.08a81.94,81.94,0,0,1-11.8-1.9,43.25,43.25,0,0,1-5-1.59,8.94,8.94,0,0,0-2.48-.84,4.47,4.47,0,0,1,1.62-.42,15.74,15.74,0,0,1-2.55-.89,7.4,7.4,0,0,1-1.22-.63c-.4-.24-.82-.46-1.23-.74-1.63-1.13-3.26-2.19-4.93-3.22,1.23.23-.23-3.81,3.79-.2a34.89,34.89,0,0,0-4.68-4.78c.65.82,1.07,2.59,0,1.63-2.13-3.36-1.64-2.23-4.33-6.17.92,1.23-1.11.78-2.65-1.13.37.18.74-.87,1.4-.28a42.26,42.26,0,0,1-4.46-4.11c1,1.16.93-.31.51-1.56.06.32-.57-.77-1.24-2.12s-1.26-3-1.55-3.74c.17.8.41,1.58.62,2.38-.28-.77-.54-1.43-.8-2s-.43-1.12-.64-1.59c-.43-.94-.79-1.72-1.18-2.5s-.76-1.58-1.15-2.59-.79-2.25-1.43-3.87c.27.34.78.72,1.1.58s.5-.84-.34-2.65c-.25-.25-.64-.59-1.16-1l-.7,2a3.42,3.42,0,0,0,1.12-1.06,3.31,3.31,0,0,0,.5-1.47,4.27,4.27,0,0,0-.8-2.88,10.65,10.65,0,0,0-2.39-2.08A12.56,12.56,0,0,1,9,191.6c-.16-.41-.29-.83-.41-1.24A23.82,23.82,0,0,1,6.29,186a22,22,0,0,0,4.88,5.71,26.23,26.23,0,0,1,3.76,2.83,5.39,5.39,0,0,1,1.34,2.37,5.49,5.49,0,0,1,0,2.67,7.21,7.21,0,0,0,.49-1.89,5.77,5.77,0,0,0,.07-.84,4.05,4.05,0,0,0-.22-1.23,7.47,7.47,0,0,0-1.37-2.41c-.42-.72.09-.38.82.52a6.8,6.8,0,0,1,1,1.88,6.4,6.4,0,0,1,.36,2,6.92,6.92,0,0,0-.27-1.9,7,7,0,0,0-.33-.91c-.13-.27-.25-.51-.39-.75a12.55,12.55,0,0,0-1.76-2.3c-.56-.61-1.07-1.13-1.45-1.58a11.62,11.62,0,0,1-1-1.45c-.2.32-1.11-.78-1.81-2.21s-1.27-3-1.5-2.75a23.53,23.53,0,0,0,1.86,4.16A13,13,0,0,0,12,189.57a13.65,13.65,0,0,0,1.47,1.48c0,.18-.41.11-.93-.15a6.36,6.36,0,0,1-1.88-1.54,16.84,16.84,0,0,1-3.32-7.57c-.1-1.64,1.42.9,1.62.71a21.48,21.48,0,0,1-1-3.22,18.66,18.66,0,0,1-.61-3.14l.86,2.56c-.42-3.47-1.94-5.48-1.85-9.77a24.94,24.94,0,0,1,.09-2.78c.07-1,.11-1.74-.1-1.85-.56,2.43-2.84,3.17-3.59,1.61,0-.26,0-2.23.08-4.34a48.18,48.18,0,0,1,.39-5.22c.5-2.45,1.59,3.58,2,1.49a5.93,5.93,0,0,1-.57-2c.11-1.54.59.62.4-2.72-.7-.55,0-6.83-.6-1.58-.24-3.28.09-3.49.11-7.35-.46,1.23-1.46-3.5-1.52-6.83.17.21.42-.53.54-.88.35-6.77.84-10.38,1.35-16.66.22-.57.69-3.57.86-2.26a21.28,21.28,0,0,1,0-3.69c.53-1.83.41-.75.31.43s-.17,2.49.33,1.11c-.39-.29,0-5,.21-7.79-.74.74-1,6.31-1,9.08-.82-.06-1.32-5-.58-11.62.77-5.25,1-2.15,1-3.08.53-2.42.86-4.16,1.1-5.53s.34-2.4.47-3.36a17.39,17.39,0,0,1,.58-3c.16-.57.35-1.21.63-1.94s.65-1.55,1.09-2.49c1.78-2.85,1,.27,1.68-.26-.7,2-1.37,3.52-1.92,4.89a29.75,29.75,0,0,0-1.48,4C8.72,93.17,9.1,92,9.58,91c-.14.67-.37,1.7-.64,2.75s-.57,2.1-.83,2.84c.55-1.27,1.68-5.28,3.43-9.71.4-1.12,1-2.22,1.43-3.36s1.08-2.21,1.62-3.29,1.19-2.06,1.74-3,1.19-1.79,1.73-2.57c.58-1.22,1.76-3.25,1-2.46-.43.68-.87,1.35-1.28,2-.76.83-.32-.23.18-1.15s.93-1.75,0-.53A39.44,39.44,0,0,1,24.5,63l1-.25a12.78,12.78,0,0,0-2.91,3.15,21.8,21.8,0,0,1,3.07-3.28,14,14,0,0,0,3-3.51c-.87.65-1.68,1.36-2.52,2a49.62,49.62,0,0,1,7.53-8.61c-1.77.83-.65.66-3.23,2.18,1.22-.55-.7,1.23-2.38,3s-3.2,3.42-1.49,2.23a15.05,15.05,0,0,0-3.24,2.75c-1,1-2,2.17-3.51,3.49.12,0,.41-.19.4-.08a15.76,15.76,0,0,1-1.43,1.92,5.78,5.78,0,0,1-.31.72l-.15.18.13-.14c-.06.14-.07.15,0,0a9.13,9.13,0,0,1,1.3-1.24c-.7,1.63-3.84,6.13-4.53,7.89-1.15,1.7.25-.85-.52,0-.4.84-.71,1.74-1.06,2.6-.56,0-3.18,4.54-1.19.07-.72,1.28-1.33,2.62-2,3.93a32.63,32.63,0,0,0-3.2,7.72c-.79,1.93-1,5.13-.89,3.31q-.84,3.33-1.42,6.69l-.13,0c-1.52,6.58-1.62,13.68-3,21.17-.06,2.24-.09,4.55-.41,8.26l-.43.71c0,2.86-.78,8.57-.4,9.82-.57,1.53-.72,5-.66,8.76s.32,7.74.39,10.29l.51.16a88.38,88.38,0,0,0,1.31,11.13l.41-.32c.82,3.66,1.05,9.53,2.65,15.37a8.93,8.93,0,0,1-.76-2.92,20.44,20.44,0,0,0,1.22,5.5A16.89,16.89,0,0,0,8.88,193c1.48,1.63,2.9,2.57,3.47,3.56a2,2,0,0,1,.27.61,1.91,1.91,0,0,1,0,.63,1.05,1.05,0,0,1-.17.46.37.37,0,0,1-.1.07s-.06,0,0,0v0s0-.09,0-.06l-1.14,3.28A6.11,6.11,0,0,1,12.37,204a2.09,2.09,0,0,0-.15-.3l.2.52c.14.6.24,1.23.36,1.94a10.35,10.35,0,0,0-.26-1.66c.38,1,.85,2.65,1.32,4.4l-.31.85.11.41c.23,1.84.55,1.39.68.36a15.5,15.5,0,0,0,.91,2.34,3.58,3.58,0,0,0,.13,1.48c.17.55.44,1.14.7,1.75s.59,1.21.83,1.81a8.37,8.37,0,0,1,.51,1.73c.48.48,1.71,2.55,3.23,4.33s3.11,3.38,3.75,3.46c0,.12.28.57-.38-.17a25.9,25.9,0,0,0,4.05,4.27l.16,1.05,3.66,2.55c1.58,2.17,2.15,3.11,0,1.54,2.47,2,3.26,2.93,4.18,3.79.49.43.94.86,1.59,1.36l1.2.74.75.44.93.4-.45.2c1.77,1.21,5,1.78,6.05,2.48a24.17,24.17,0,0,0,5.29,1.67,72.55,72.55,0,0,0,8.5,1.17c3.15.27,6.5.42,9.74.61,1.62.09,3.19.22,4.73.35s3,.29,4.43.45c-2.11-1.29,5.18.83,5.67-.09.64.3,2.19.51.37.68,5.72-.06,8.58.76,12.55.05.64.29-1.24.38-.66.55a8.83,8.83,0,0,1,2.42,0c.58.18-.85.22-1.75.32,5.85.08,6.44-.79,6.87-1.58a15.71,15.71,0,0,0,6.57-.16c1,.26,2.74.54-.88.62,2,.06,12.45.35,12.65-.31a15.78,15.78,0,0,0,3.38-.06c4.57,0,5,0,9.46-.1l-1.25-.09c1.76-.8,3.73-.23,7.34-.39l-.1.09c8.3.4,3.58-.34,11.76.16l-.45-.48c.74-1,7.25.49,12,0l-1.71-.25c2.59-.39,7.25,1.31,9.85,1.44.56.09-.9.15-1.69.22,6.8.57.88-.63,6-.81.93.34-1.2.86,2.2.93,1.7.27,9.9-1.07,14.53-.3-1-.28-2-.56.33-.71a66.22,66.22,0,0,1,6.62.54,24.28,24.28,0,0,0,6.37,0c.45.09.62.17.63.24,2.76-.07,9,.1,10.64-.18,1.22.93,5.46,1,9.47,1.14,2,.06,4,0,5.42,0s2.4,0,2.42.43a22.72,22.72,0,0,0,4.52-.8,17.38,17.38,0,0,0,4.35-1.89l-.14.26a16.5,16.5,0,0,0,6.81-7.15c.86-1,.41-.13.41,0a45.78,45.78,0,0,0,4.7-6.93c1-1.8,1.71-3.46,3.11-6.53l.78-.35c.35-.85,2-3.25,3.83-6.42a66.82,66.82,0,0,0,5.25-10.77,1.78,1.78,0,0,1-.15.88c1.58-4.14,3.93-8.88,5.77-13.08s3.21-7.83,2.91-9.65l1.54-5.61c-2.65,7-.36-1.31-1.68,1.49.89-2.8,3-7,1.93-3.55l-.27.51c.46,1.56,3.37-8.68,3.9-8.28a76.43,76.43,0,0,0,3.11-10.78,24.57,24.57,0,0,0-.33-11.52c-.54-1.85-1.22-3.52-1.73-5.11a15,15,0,0,1-.83-4.62c-.06-3.11.84-6.35,1.63-9.74L284.12,134c.38-1.55.78-3.13,1.08-4.77.18-.63.39-1,.48-.87a7,7,0,0,1-.3,2.74,9.82,9.82,0,0,0,.6-3.7,8.19,8.19,0,0,0-.28-2.44,13.33,13.33,0,0,1,.28-2.56c.09-.11.2.38.3,1,.18,1.3.17,3.27.26,2.17s0-2,0-3l-.08.67c-.15-1.2-.34-1.84-.51-2.72s-.34-2-.63-4.09c-.3-2.66.21-1.43.05-2.48.05,0,0-.36-.3-1.58-.4-2-.85-4-1.28-6l0,2.49c-.89-2.56-1.23-5.54-1.26-2.68a39.07,39.07,0,0,0-.62-5.25,51.08,51.08,0,0,0-1.95-7.8c-1.74-5.3-4.17-10.07-4.59-11.28-2.08-3.23-3.86-6.53-6.33-10.47.49,1.06.35,2-1.75-1.43,1,.24.07-1.37-1.2-3.43a47.77,47.77,0,0,1-3.68-6.07c.61,1.36-1.1-.93-2.85-2.91s-3.39-3.79-2.26-1.77c-2.09-2.6.25-.48-1.17-2.61-2.78-2.85-5.72-6.09-8.87-9.47a129.63,129.63,0,0,0-10.36-10c-.23,0,.82,1.32-.93.13-1.09-1.37-2.24-2.68-3.37-4-1.53-1.19-2-.35-4.38-3.05.29.43.73,1.07-.31.3-1.79-1.61-3.69-3.09-5.58-4.61s-3.86-2.94-5.85-4.36l-3-2.1-1.51-1-1.57-1c-2.1-1.35-4.29-2.56-6.51-3.71A92.52,92.52,0,0,0,190,4.78a128.92,128.92,0,0,0-14.55-3.5c2.64.67.85.43-1.19.29,1.32.19-.07.43.17.69-2.71-.49-5.47-.74-8.23-1-1.46.63-8.63-.16-9.48.45l2.55-.05c-3.42.67,4.74,1.77,4.26,2.72a13,13,0,0,1,3.29-.11c1.21.08,2.53.2,3.91.42a51.32,51.32,0,0,0,8.9.76c1.32.41-1.19.13-.5.46a10.56,10.56,0,0,1,2.76.09c.55.08,1.15.19,1.83.33s1.42.37,2.25.61h-.4a57.52,57.52,0,0,1,11.38,3.84,75.4,75.4,0,0,1,11.18,6.35l-.42-.84a24.08,24.08,0,0,1,3.12,2.48c1.33.51,0-.51-1.44-1.45s-2.85-1.87-1.58-1.56a21.77,21.77,0,0,0,3.08,2.56c1.4,1.07,3.12,2.26,4.77,3.47s3.27,2.42,4.54,3.47a10.5,10.5,0,0,1,2.41,2.49c2.92,2.25-.51-1.1,2.39,1.17l.58.84,1,.29c1.84,1.56,2.55,2.61,2.46,2.87-.43-.4-1.34-1-1.84-1.37,2.22,2.22,6.83,5.57,7.54,6.38-.84-.82-1.67-1.66-2.54-2.46,3.89,3.18,8,6.93,11.92,10.84s7.65,7.9,11,11.41l-.3-.71a38.72,38.72,0,0,1,4.29,5.22c.89,1.3,1.82,2.68,4.25,5.93l-.22-.21a33.65,33.65,0,0,1,3.6,4.83c-1.3-1.59,1.6,3.54-.06,1.42,2.31,3.26,2.8,4.11,3.25,4.6a23.25,23.25,0,0,1,2.35,2.83l.22,1.26a19.36,19.36,0,0,1,3.06,5.21c-1.61-2.93.5,2.59-1.35-.66,1.31,4,2.47,6.89,3.34,9.29a24.39,24.39,0,0,1,1,3.31,11.11,11.11,0,0,1,.17,3.05c.91,1.89.66-.05.3-2.06s-1-4.14-.64-3.12c-.09-.92.34-.21.79,1.09a28.83,28.83,0,0,1,1.12,4.53,25.24,25.24,0,0,1,.28,4.29,46.51,46.51,0,0,0,.94,7.24c-.12-.66-.2-.69-.33-1.34.25,2.51,1.27,4.81,1,7.86.72,1.67,0,3.88.7,4.41a35.31,35.31,0,0,0-.24-6.08c.49,3.39,1.49,6.79-.36,12.45-.05-.49.14-2.24.23-3.41-.54,1.6-.53,3.22-1.18,4.93-.33-.34.11-2.25.53-4.46a18.89,18.89,0,0,0,.27-6.6c-.13.88-.05,2.57-.11,3.83s-.21,2.06-.49,1.11c.38,1.34,0,3-.53,4.83a20.8,20.8,0,0,0-1,6.6l-.43-.38c0,.8,0,2.49.11,4a23.29,23.29,0,0,1-.57-2.76,45.87,45.87,0,0,0,.49,6.31,22.57,22.57,0,0,0,1.67,5.44,35.93,35.93,0,0,1-1.16-3.41c-.14-.6-.08-.7,0-.67s.64.69.31-1c.88,2.39,1.49,3.73,1.77,4.79a8.15,8.15,0,0,1,.33,2.41c0,.69,0,1.38,0,2.47s0,2.57-.19,4.94c.05-.65.2-1.83.32-2.6s.22-1.17.35-.17a16.73,16.73,0,0,1-1.1,5.25c-1.43,6.39.74-.88.37,1.91-1.13,2.05-.65,3.24-1.43,6.17l-.46-.14c-2.88,7.38.27,2.32-2.43,8.93l.36-3.06-1.06,3.56-.26-.9a48,48,0,0,1-3,8.76c.63-.75.66.79-.56,4.08-1.11,2.13.05-1.41-1.65,3.25a8.54,8.54,0,0,1,1.37-4.29c-.07-.27.11-1.14,0-1.41a82.32,82.32,0,0,0-3,7.67c.27-.63.59-1.39.81-1.76q-1,3.47-2.05,6.9c-.6,1-.39.09-.18-.78-.51,1.36-.68,2.38-1.5,4.35-.15-.67-.54-.69.44-3.55-.73,2.16-1.5,4.29-2.3,6.42-.34.34-1.88,3-1.64,2.11-1.78,3.29-3.34,8.63-6.09,12.8a7.89,7.89,0,0,1-.75,1.68c-1.2,1.95-2.55,3.89-3.78,5.87s-2.44,4.05-3.75,6.4c-.78.69-1.55,1.36-2.35,1.94-.6.81-.73,1-.6,1a2.44,2.44,0,0,0,.77-.4c.3-.18.55-.29.47,0a7.74,7.74,0,0,1-1.64,2.2,8.28,8.28,0,0,1-1.71,1.51c-.34.22-.49.22-.58.15s-.06-.51-.75-.16a10.52,10.52,0,0,1-3.58,2.36,12.75,12.75,0,0,1-6.06.66C234.79,247.91,235.93,247.94,237.24,247.69Zm-54-1.58c1.06-.09,3.17-.39,3.94-.11C186,246.55,185.07,246.28,183.27,246.11ZM100.54,248a12.59,12.59,0,0,1,3.36.14A21,21,0,0,1,100.54,248ZM9.5,85.23l0,.12C8.44,87.55,8.81,86.77,9.5,85.23Zm2.24-4.51c.16-.48.09-.48-.06-.32A18.42,18.42,0,0,1,10.59,83,8.15,8.15,0,0,0,11.74,80.72Zm273.35,32.8.06,1C284.6,112.38,284.84,113,285.09,113.52Z"/><path class="fls-2" d="M109.91,247.39a.7.7,0,0,1,.45.26C110.77,247.57,110.78,247.48,109.91,247.39Z"/><path class="fls-2" d="M257.53,225l.09-.14a.3.3,0,0,0,0-.19Z"/><path class="fls-2" d="M5.43,155.91a11.58,11.58,0,0,1-.16,1.93C5.4,157.89,5.46,157.43,5.43,155.91Z"/><path class="fls-2" d="M26.48,58.63l-2.09,2.44a18.18,18.18,0,0,1,2.08-2C26.34,59,25.8,59.37,26.48,58.63Z"/><path class="fls-2" d="M48.84,42.56c.32-.34.75-.62,1.06-1l-.24-.1C48.16,42.75,47.22,43.75,48.84,42.56Z"/><path class="fls-2" d="M29.69,57.63c.45.1,1.77-1.38,3.3-3l-.28.27C32.8,54.08,31.21,55.83,29.69,57.63Z"/><path class="fls-2" d="M33.36,54.3c.48-.47,1-.95,1.49-1.39C34.88,52.57,34.21,53.44,33.36,54.3Z"/><path class="fls-2" d="M14.55,75c.65-.86-.09-.84.37-1.28.1-.64-.72,1-1.18,2.1S13.17,77.57,14.55,75Z"/><path class="fls-2" d="M31.89,57.32l-.91.19-.58,1.17C30.89,58.22,31.38,57.76,31.89,57.32Z"/><path class="fls-2" d="M20.2,70.11c.75-.91,1.46-1.84,2.24-2.71-.1,0,.15-.39.46-.84A23.67,23.67,0,0,0,20.2,70.11Z"/><path class="fls-2" d="M22.9,66.56c.71-.88,1.39-1.71,1.75-2.23A25,25,0,0,0,22.9,66.56Z"/><path class="fls-2" d="M28.64,60.84l-.77.69c-.57.6-1.15,1.18-1.7,1.8C27,62.48,27.82,61.67,28.64,60.84Z"/><path class="fls-2" d="M6,104.79c-.15,1.27-.35,2.54-.47,3.81.12.41.35-.61.53-2C6.06,105.65,6.23,104.24,6,104.79Z"/><path class="fls-2" d="M9.93,93.88a6.43,6.43,0,0,1-.84,1.5l.57.28C9.74,95.06,9.84,94.47,9.93,93.88Z"/><path class="fls-2" d="M7.54,104.65c.1.41-.43,5.5.33.77C7.74,105,8.35,101.27,7.54,104.65Z"/><polygon class="fls-2" points="4.06 161.87 3.98 160.9 2.98 161.11 4.06 161.87"/><path class="fls-2" d="M18.61,208.32c-.36-2.25-.61-2.54-.8-2.71s-.32-.3-.87-2.5c-.31-.52,0,.39.15,1.26s.33,1.74.1,1.21C18.09,208.3,18.2,209.66,18.61,208.32Z"/><path class="fls-2" d="M17.19,205.58c-.15-.44-.32-.9-.54-1.39C17,205,17.09,205.36,17.19,205.58Z"/><polygon class="fls-2" points="160.81 0.63 157.93 0.35 159.78 0.74 160.81 0.63"/><path class="fls-2" d="M155.24,1.25l-.65-.66-1.76.55A11,11,0,0,1,155.24,1.25Z"/><path class="fls-2" d="M175.16,244.8l-.23.15a8.9,8.9,0,0,0,2.51.2Z"/><polygon class="fls-2" points="214.84 246.24 214.16 246.19 215.4 246.85 214.84 246.24"/><path class="fls-2" d="M244.12,243.07a15.24,15.24,0,0,1-2.76,2.06c1-.58,1.82-1,2.36-1.37S244.48,243.24,244.12,243.07Z"/></g></g></g></svg>